<svg width="18" height="18" viewBox="0 0 18 18" fill="none" xmlns="http://www.w3.org/2000/svg">
<path d="M5.99463 16.0305C5.70717 15.8381 5.45191 15.6024 5.23859 15.3302C5.00582 15.0482 4.79007 14.7516 4.59195 14.4446C4.12641 13.7625 3.76237 13.0165 3.51015 12.2302C3.20628 11.3155 3.05859 10.4397 3.05859 9.58283C3.05859 8.62667 3.26523 7.79231 3.66756 7.09194C3.96536 6.54382 4.40901 6.08523 4.94383 5.76306C5.46042 5.44028 6.06209 5.26366 6.66984 5.25148C6.88255 5.25148 7.1135 5.28193 7.3566 5.34284C7.53284 5.39156 7.74556 5.47073 8.00689 5.56817C8.34115 5.69607 8.52348 5.77524 8.58425 5.79351C8.77873 5.86659 8.94282 5.89704 9.07045 5.89704C9.16769 5.89704 9.30747 5.86659 9.46245 5.81787C9.55057 5.78742 9.7177 5.73261 9.95472 5.62908C10.1893 5.54381 10.3753 5.47073 10.523 5.41592C10.7478 5.34893 10.9654 5.28802 11.1611 5.25757C11.3981 5.22103 11.6333 5.20885 11.8588 5.22712C12.2903 5.25757 12.6853 5.34893 13.0378 5.48291C13.6577 5.73261 14.1579 6.12238 14.5311 6.67659C14.3731 6.77403 14.2272 6.88731 14.0905 7.01155C13.7945 7.27343 13.5435 7.58403 13.3429 7.92813C13.0816 8.39707 12.9479 8.92692 12.9515 9.46286C12.9607 10.1224 13.1278 10.7022 13.462 11.2047C13.6972 11.5701 14.0115 11.8831 14.3943 12.1401C14.5827 12.268 14.748 12.3563 14.9048 12.4142C14.8319 12.6425 14.7517 12.8648 14.6587 13.0841C14.4478 13.5756 14.1968 14.0463 13.899 14.4909C13.6365 14.8746 13.4298 15.1608 13.273 15.3496C13.0287 15.642 12.7929 15.8612 12.5559 16.0177C12.2946 16.1913 11.9876 16.2833 11.6734 16.2833C11.4607 16.2924 11.248 16.265 11.045 16.2059C10.8688 16.1481 10.695 16.0829 10.5248 16.0092C10.3467 15.9276 10.1626 15.8582 9.97478 15.8021C9.74384 15.7412 9.50681 15.712 9.26736 15.7126C9.02426 15.7126 8.78724 15.7431 8.56237 15.8009C8.37397 15.8545 8.19164 15.9203 8.01114 15.9989C7.75589 16.1054 7.58876 16.1755 7.49152 16.2059C7.29461 16.2644 7.09283 16.2997 6.88984 16.3125C6.57382 16.3125 6.27966 16.2211 5.98673 16.0384L5.99463 16.0305ZM10.1601 4.78802C9.74687 4.99509 9.35427 5.08278 8.96105 5.05355C8.90028 4.66013 8.96105 4.25574 9.12515 3.81298C9.27101 3.43539 9.46549 3.09434 9.7329 2.78983C10.0125 2.47314 10.3467 2.21126 10.7235 2.02246C11.1246 1.81539 11.5075 1.70577 11.8722 1.6875C11.9208 2.10163 11.8722 2.50968 11.7202 2.94817C11.5817 3.33794 11.375 3.69727 11.1125 4.02005C10.8481 4.33674 10.5199 4.59861 10.1486 4.78741L10.1601 4.78802Z" fill="#6E7491"/>
</svg>
