<svg width="18" height="18" viewBox="0 0 18 18" fill="none" xmlns="http://www.w3.org/2000/svg">
<path fill-rule="evenodd" clip-rule="evenodd" d="M14.25 9C14.25 11.8995 11.8995 14.25 9 14.25C6.10051 14.25 3.75 11.8995 3.75 9C3.75 6.10051 6.10051 3.75 9 3.75C11.8995 3.75 14.25 6.10051 14.25 9ZM15.75 9C15.75 12.7279 12.7279 15.75 9 15.75C5.27208 15.75 2.25 12.7279 2.25 9C2.25 5.27208 5.27208 2.25 9 2.25C12.7279 2.25 15.75 5.27208 15.75 9ZM8.73615 5.32283C8.81486 5.10659 8.87866 4.93129 9.23104 5.05955C9.58343 5.18781 9.51963 5.3631 9.44092 5.57935L9.21322 6.20496L9.91799 6.46147L10.1457 5.83586C10.2244 5.61962 10.2882 5.44432 10.6406 5.57258C10.993 5.70084 10.9292 5.87613 10.8505 6.09238L10.6069 6.76162C10.914 6.9339 11.1417 7.13282 11.2901 7.35838C11.52 7.70449 11.5532 8.10237 11.3895 8.55203C11.3002 8.7975 11.1582 8.99134 10.9635 9.13354C10.7697 9.27344 10.5445 9.34606 10.288 9.35141C10.5215 9.50917 10.6762 9.71227 10.7521 9.96071C10.8302 10.21 10.818 10.4757 10.7153 10.7579C10.5399 11.2397 10.2534 11.5485 9.85583 11.6844C9.55589 11.7869 9.20673 11.7931 8.80834 11.7031L8.57033 12.357C8.49162 12.5732 8.42782 12.7485 8.07543 12.6203C7.72305 12.492 7.78685 12.3167 7.86556 12.1005L8.09432 11.4719L7.38955 11.2154L7.16079 11.844C7.08208 12.0602 7.01828 12.2355 6.66589 12.1072C6.31351 11.979 6.37731 11.8037 6.45602 11.5874L6.68479 10.9589L6.61314 10.9328C6.37635 10.8467 6.25426 10.5848 6.34045 10.348C6.37936 10.2411 6.45681 10.1526 6.5576 10.0999L6.78054 9.98318L6.8888 9.68572L7.91486 6.86664L8.006 6.61625L7.90023 6.41133C7.85278 6.31939 7.84592 6.2118 7.8813 6.11459C7.95131 5.92224 8.16399 5.82307 8.35633 5.89308L8.50845 5.94844L8.73615 5.32283ZM8.28221 9.06954L7.78997 10.422L8.67438 10.7439C8.91756 10.8324 9.1277 10.8439 9.30481 10.7785C9.48504 10.7116 9.61232 10.576 9.68664 10.3718C9.85364 9.913 9.70095 9.59372 9.22856 9.41399L8.28221 9.06954ZM8.54774 8.34L9.3117 8.61806C9.83582 8.79843 10.1718 8.68558 10.3196 8.27951C10.4022 8.05239 10.395 7.86528 10.2978 7.71821C10.2038 7.56967 10.0146 7.44363 9.73008 7.34008L9.00742 7.07706L8.54774 8.34Z" fill="#6E7491"/>
</svg>
