<svg width="18" height="18" viewBox="0 0 18 18" fill="none" xmlns="http://www.w3.org/2000/svg">
<path fill-rule="evenodd" clip-rule="evenodd" d="M4.25 5.25H13.75C14.0261 5.25 14.25 5.47386 14.25 5.75V6.75H3.75V5.75C3.75 5.47386 3.97386 5.25 4.25 5.25ZM3.75 8.25V12.25C3.75 12.5261 3.97386 12.75 4.25 12.75H13.75C14.0261 12.75 14.25 12.5261 14.25 12.25V8.25H3.75ZM2.25 5.75C2.25 4.64543 3.14543 3.75 4.25 3.75H13.75C14.8546 3.75 15.75 4.64543 15.75 5.75V12.25C15.75 13.3546 14.8546 14.25 13.75 14.25H4.25C3.14543 14.25 2.25 13.3546 2.25 12.25V5.75Z" fill="#6E7491"/>
</svg>
