<svg width="18" height="18" viewBox="0 0 18 18" fill="none" xmlns="http://www.w3.org/2000/svg">
<path d="M15.0393 2.25H2.96074C2.77634 2.26245 2.6027 2.34133 2.47202 2.47202C2.34133 2.6027 2.26245 2.77634 2.25 2.96074V15.0393C2.25104 15.2274 2.32626 15.4076 2.45932 15.5407C2.59238 15.6737 2.77256 15.749 2.96074 15.75H9.42644V10.4921H7.72068V8.50288H9.49712V7.01074C9.45883 6.65289 9.49993 6.291 9.6175 5.95086C9.73506 5.61071 9.9262 5.30068 10.1773 5.04284C10.4284 4.78501 10.7332 4.58572 11.0701 4.45918C11.407 4.33264 11.7677 4.28195 12.1264 4.31074C12.8372 4.31074 13.4764 4.38141 13.6893 4.38141V6.22932H12.6236C11.7707 6.22932 11.6285 6.65576 11.6285 7.22435V8.50288H13.6178L13.3335 10.5636H11.5579V15.75H15.0393C15.2274 15.749 15.4076 15.6737 15.5407 15.5407C15.6737 15.4076 15.749 15.2274 15.75 15.0393V2.96074C15.7375 2.77634 15.6587 2.6027 15.528 2.47202C15.3973 2.34133 15.2237 2.26245 15.0393 2.25V2.25Z" fill="#6E7491"/>
</svg>
