<svg width="18" height="18" viewBox="0 0 18 18" fill="none" xmlns="http://www.w3.org/2000/svg">
<g clip-path="url(#clip0_937_121)">
<path fill-rule="evenodd" clip-rule="evenodd" d="M0.75 5.59091C0.75 2.9267 2.9267 0.75 5.59091 0.75H12.4091C15.0733 0.75 17.25 2.9267 17.25 5.59091V12.4091C17.25 15.0733 15.0733 17.25 12.4091 17.25H5.59091C2.9267 17.25 0.75 15.0733 0.75 12.4091V5.59091ZM5.59091 2.25C3.75512 2.25 2.25 3.75512 2.25 5.59091V12.4091C2.25 14.2449 3.75512 15.75 5.59091 15.75H12.4091C14.2449 15.75 15.75 14.2449 15.75 12.4091V5.59091C15.75 3.75512 14.2449 2.25 12.4091 2.25H5.59091ZM9 11.25C10.2426 11.25 11.25 10.2426 11.25 9C11.25 7.75736 10.2426 6.75 9 6.75C7.75736 6.75 6.75 7.75736 6.75 9C6.75 10.2426 7.75736 11.25 9 11.25ZM9 12.75C11.0711 12.75 12.75 11.0711 12.75 9C12.75 6.92893 11.0711 5.25 9 5.25C6.92893 5.25 5.25 6.92893 5.25 9C5.25 11.0711 6.92893 12.75 9 12.75ZM12.75 5.25C13.1642 5.25 13.5 4.91421 13.5 4.5C13.5 4.08579 13.1642 3.75 12.75 3.75C12.3358 3.75 12 4.08579 12 4.5C12 4.91421 12.3358 5.25 12.75 5.25Z" fill="#6E7491"/>
</g>
<defs>
<clipPath id="clip0_937_121">
<rect width="18" height="18" fill="white"/>
</clipPath>
</defs>
</svg>
