<svg width="18" height="18" viewBox="0 0 18 18" fill="none" xmlns="http://www.w3.org/2000/svg">
<path d="M6.41798 3.46283C6.2685 3.14228 6.40646 2.75811 6.73973 2.63966C8.21207 2.11638 9.82789 2.11813 11.3086 2.65707C12.9909 3.26936 14.361 4.52484 15.1176 6.14733C15.8742 7.76981 15.9552 9.62639 15.3429 11.3086C14.804 12.7894 13.7667 14.0283 12.4194 14.8198C12.1145 14.999 11.7315 14.8577 11.582 14.5372C11.4325 14.2166 11.5738 13.8387 11.8747 13.6528C12.9156 13.0097 13.7166 12.0319 14.1393 10.8706C14.6354 9.50753 14.5698 8.00324 13.9568 6.68863C13.3437 5.37401 12.2336 4.35676 10.8706 3.86066C9.70921 3.43796 8.44532 3.42309 7.28357 3.80712C6.94775 3.91813 6.56745 3.78339 6.41798 3.46283Z" fill="#6E7491"/>
</svg>
