<svg width="18" height="18" viewBox="0 0 18 18" fill="none" xmlns="http://www.w3.org/2000/svg">
<path d="M8.03498 14.5574C8.03389 14.8015 8.23148 15 8.4756 15C8.71818 15 8.91513 14.8039 8.91621 14.5613L8.91895 13.9453C10.9018 13.8 12.0361 12.6656 12.0361 11.1469C12.0361 9.41719 10.494 8.74688 9.2752 8.44688L8.93301 8.35781L8.94239 5.34844C9.63775 5.4414 10.1591 5.76741 10.3894 6.28199C10.4958 6.5199 10.7047 6.72187 10.9653 6.72187H11.1521C11.5646 6.72187 11.9073 6.37384 11.7751 5.98306C11.4206 4.93508 10.3708 4.19794 8.94707 4.08281L8.94985 3.44252C8.9509 3.19843 8.75333 3 8.50924 3C8.26663 3 8.06967 3.19612 8.06863 3.43872L8.06583 4.09219C6.38301 4.26094 5.1502 5.31094 5.1502 6.825C5.1502 8.16094 6.10645 8.94375 7.64864 9.36094L8.05176 9.46875L8.04239 12.6609C7.29706 12.5692 6.68886 12.2219 6.44905 11.6063C6.35211 11.3575 6.14004 11.1469 5.87297 11.1469H5.66722C5.24636 11.1469 4.90101 11.5065 5.02588 11.9084C5.39207 13.087 6.46458 13.8282 8.0377 13.9453L8.03498 14.5574ZM8.92364 12.6609L8.93301 9.7125C9.88458 9.975 10.6018 10.3219 10.6018 11.1328C10.6018 11.9531 9.91739 12.5297 8.92364 12.6609ZM8.05645 8.12344C7.35801 7.91719 6.58926 7.54688 6.59395 6.74063C6.59395 6.0375 7.15176 5.48906 8.06114 5.35313L8.05645 8.12344Z" fill="#6E7491"/>
</svg>
