<svg width="18" height="18" viewBox="0 0 18 18" fill="none" xmlns="http://www.w3.org/2000/svg">
<path fill-rule="evenodd" clip-rule="evenodd" d="M2.0957 13.4188C2.0456 13.7233 2.28051 14 2.58906 14H4.75976L4.59814 15.0173C4.50167 15.6246 4.97089 16.1742 5.58576 16.1742H7.35248C7.84411 16.1742 8.26282 15.8169 8.34006 15.3313L8.84187 12.1771H11.1102C12.5475 12.1771 13.7266 11.831 14.5668 11.0617C15.407 10.2926 15.8042 9.23895 15.8042 7.96759C15.8042 6.8936 15.4536 6.00617 14.6994 5.38702C14.4844 5.20754 14.2448 5.05744 13.9824 4.93481C13.9024 4.05176 13.5498 3.36285 12.9245 2.86809C12.2074 2.28936 11.1612 2 9.78585 2H4.39935C4.15455 2 3.94574 2.17725 3.90599 2.41881L2.0957 13.4188ZM6.48618 9.50638H9.11581C10.7027 9.50638 11.9135 9.13759 12.7481 8.4C13.419 7.8071 13.8203 7.03091 13.9519 6.07141C13.9893 6.09869 14.0252 6.12682 14.0599 6.15577L14.0599 6.15579L14.0636 6.15887C14.5396 6.54904 14.8042 7.12463 14.8042 7.96759C14.8042 9.0178 14.4847 9.78109 13.8916 10.3241C13.2985 10.8671 12.3982 11.1771 11.1102 11.1771H8.84187C8.35024 11.1771 7.93154 11.5344 7.85429 12.02L7.35248 15.1742H5.58576L6.48618 9.50638Z" fill="#6E7491"/>
</svg>
