<svg width="18" height="18" viewBox="0 0 18 18" fill="none" xmlns="http://www.w3.org/2000/svg">
<path d="M17.25 4.50946C17.0347 4.83128 16.7911 5.13138 16.5194 5.40978C16.2477 5.68817 15.9529 5.94231 15.635 6.17217C15.6401 6.24369 15.644 6.31392 15.6465 6.38288C15.6491 6.45184 15.6504 6.52208 15.6504 6.5936C15.6504 7.23723 15.5812 7.87319 15.4427 8.5015C15.3043 9.1298 15.1044 9.73767 14.8429 10.3251C14.4635 11.1782 13.9893 11.9406 13.4202 12.6123C12.8511 13.284 12.2064 13.8523 11.486 14.3172C10.7657 14.782 9.97998 15.137 9.12891 15.3822C8.27783 15.6274 7.38574 15.75 6.45263 15.75C5.5708 15.75 4.71075 15.6287 3.8725 15.386C3.03424 15.1434 2.24341 14.782 1.5 14.3018C1.75122 14.3325 2.00757 14.3478 2.26904 14.3478C3.0022 14.3478 3.711 14.2303 4.39544 13.9953C5.07989 13.7604 5.70922 13.4181 6.28344 12.9686C5.93994 12.9635 5.60925 12.906 5.29138 12.7962C4.97351 12.6864 4.68255 12.5331 4.41851 12.3365C4.15447 12.1398 3.92376 11.9061 3.72637 11.6354C3.52898 11.3646 3.37646 11.0658 3.26879 10.7389C3.37133 10.7542 3.47259 10.767 3.57256 10.7772C3.67254 10.7874 3.7738 10.7925 3.87634 10.7925C4.16345 10.7925 4.44543 10.7542 4.72228 10.6776C4.34289 10.601 3.99554 10.4656 3.68023 10.2715C3.36492 10.0774 3.09191 9.84112 2.8612 9.56272C2.63049 9.28433 2.45104 8.97018 2.32287 8.62026C2.1947 8.27035 2.13061 7.90384 2.13061 7.52073V7.48242C2.58178 7.73783 3.07141 7.87319 3.59948 7.88852C3.3739 7.73527 3.17266 7.56032 2.99578 7.36365C2.8189 7.16699 2.66894 6.95372 2.54589 6.72386C2.42285 6.49399 2.328 6.25135 2.26135 5.99594C2.1947 5.74054 2.16137 5.47746 2.16137 5.20673C2.16137 4.92067 2.19726 4.641 2.26904 4.36772C2.34082 4.09443 2.45105 3.83519 2.59973 3.59C3.00988 4.09571 3.46618 4.54906 3.96862 4.95005C4.47106 5.35104 5.00555 5.69456 5.57208 5.98062C6.13861 6.26668 6.73205 6.49271 7.35241 6.65873C7.97277 6.82474 8.60851 6.92308 9.25963 6.95373C9.22887 6.83624 9.20708 6.71492 9.19427 6.58977C9.18145 6.46462 9.17504 6.34075 9.17504 6.21815C9.17504 5.77374 9.25964 5.35615 9.42882 4.96537C9.59801 4.57459 9.82873 4.23362 10.121 3.94246C10.4132 3.65129 10.7554 3.42142 11.1476 3.25285C11.5399 3.08428 11.959 3 12.405 3C12.8562 3 13.2856 3.08812 13.6932 3.26435C14.1008 3.44058 14.4584 3.69216 14.766 4.01908C15.13 3.94756 15.4825 3.84668 15.8234 3.71642C16.1644 3.58616 16.4938 3.42653 16.8116 3.23753C16.6937 3.61043 16.513 3.95012 16.2695 4.25661C16.0259 4.5631 15.735 4.81596 15.3966 5.01517C16.0426 4.93855 16.6604 4.76998 17.25 4.50947L17.25 4.50946Z" fill="#6E7491"/>
</svg>
