<svg width="18" height="18" viewBox="0 0 18 18" fill="none" xmlns="http://www.w3.org/2000/svg">
<path d="M7.93934 9L4.75736 5.81802C4.46447 5.52513 4.46447 5.05025 4.75736 4.75736C5.05025 4.46447 5.52513 4.46447 5.81802 4.75736L9 7.93934L12.182 4.75736C12.4749 4.46447 12.9497 4.46447 13.2426 4.75736C13.5355 5.05025 13.5355 5.52513 13.2426 5.81802L10.0607 9L13.2426 12.182C13.5355 12.4749 13.5355 12.9497 13.2426 13.2426C12.9497 13.5355 12.4749 13.5355 12.182 13.2426L9 10.0607L5.81802 13.2426C5.52513 13.5355 5.05025 13.5355 4.75736 13.2426C4.46447 12.9497 4.46447 12.4749 4.75736 12.182L7.93934 9Z" fill="#6E7491"/>
</svg>
