<svg width="24" height="24" viewBox="0 0 24 24" fill="none" xmlns="http://www.w3.org/2000/svg">
<path fill-rule="evenodd" clip-rule="evenodd" d="M8.5 10C8.5 7.95985 10.0406 6.5 12 6.5C13.9594 6.5 15.5 7.95985 15.5 10C15.5 10.2692 15.4012 10.7552 15.136 11.466C14.8821 12.1466 14.5195 12.9201 14.0983 13.7228C13.4272 15.0019 12.6423 16.2898 12 17.2935C11.3577 16.2898 10.5727 15.0019 9.90168 13.7228C9.48051 12.9201 9.11794 12.1466 8.86401 11.466C8.59884 10.7552 8.5 10.2692 8.5 10ZM12 5C9.23858 5 7 7.10526 7 10C7 12.1639 9.79408 16.6808 11.2049 18.8235C11.5855 19.4016 12.4145 19.4016 12.7951 18.8235C14.2059 16.6808 17 12.1639 17 10C17 7.10526 14.7614 5 12 5ZM12 12C12.8284 12 13.5 11.3284 13.5 10.5C13.5 9.67157 12.8284 9 12 9C11.1716 9 10.5 9.67157 10.5 10.5C10.5 11.3284 11.1716 12 12 12Z" fill="#6E7491"/>
</svg>
