<svg width="24" height="24" viewBox="0 0 24 24" fill="none" xmlns="http://www.w3.org/2000/svg">
<path d="M11.435 16.2802L11.7998 17.1775L11.435 16.2802L7.82313 17.749L8.10385 13.86C8.132 13.47 8.0067 13.0843 7.75464 12.7853L5.24169 9.80409L9.02701 8.86932C9.4067 8.77556 9.73475 8.53722 9.94125 8.20509L12 4.89389L14.0587 8.20509L14.908 7.67708L14.0587 8.20509C14.2652 8.53722 14.5933 8.77556 14.973 8.86932L18.7583 9.80409L16.2454 12.7853L17.01 13.4298L16.2454 12.7853C15.9933 13.0843 15.868 13.47 15.8962 13.86L16.1769 17.749L12.565 16.2802L12.1883 17.2066L12.565 16.2802C12.2027 16.1329 11.7973 16.1329 11.435 16.2802ZM4.46096 9.99689L4.46157 9.99674C4.46137 9.99679 4.46116 9.99684 4.46096 9.99689L4.34109 9.51147L4.46096 9.99689Z" stroke="#6E7491" stroke-width="2"/>
<path fill-rule="evenodd" clip-rule="evenodd" d="M12 3.44693C11.8366 3.44693 11.6732 3.52559 11.5754 3.68292L9.09201 7.67706C9.02318 7.78777 8.91383 7.86722 8.78727 7.89847L4.22121 9.02604C3.8615 9.11487 3.71999 9.55041 3.95879 9.83371L6.99004 13.4298C7.07406 13.5295 7.11582 13.658 7.10644 13.788L6.76783 18.479C6.74115 18.8486 7.11165 19.1178 7.45487 18.9782L11.8117 17.2066C11.872 17.182 11.936 17.1697 12 17.1697V3.44693Z" fill="#6E7491"/>
</svg>
