<svg width="90" height="36" viewBox="0 0 90 36" fill="none" xmlns="http://www.w3.org/2000/svg">
<path d="M14.1499 10.8701H9V8H22.9349V10.8701H17.7851V23.3263C17.7851 23.6609 17.5138 23.9322 17.1792 23.9322C15.5062 23.9322 14.1499 22.5759 14.1499 20.9029V10.8701Z" fill="#605DEC"/>
<path d="M30.784 14.0616C30.838 14.7886 30.3037 15.4265 29.5786 15.501L28.9002 15.5706C27.9215 15.661 27.2302 15.9322 26.8263 16.3842C26.4224 16.8211 26.2204 17.4087 26.2204 18.1469V23.2589C26.2204 23.6307 25.919 23.9322 25.5471 23.9322H24.0484C23.3047 23.9322 22.7017 23.3293 22.7017 22.5855V13.5095C22.7017 13.1376 23.0032 12.8362 23.3751 12.8362H25.4073C25.7791 12.8362 26.0806 13.1376 26.0806 13.5095V14.7119C26.6554 13.4313 27.8438 12.7307 29.6459 12.6102C30.2135 12.5726 30.7052 12.9998 30.7473 13.5671L30.784 14.0616Z" fill="#605DEC"/>
<path d="M32.0546 13.5095C32.0546 13.1376 32.3561 12.8362 32.728 12.8362H34.9C35.2719 12.8362 35.5733 13.1376 35.5733 13.5095V23.2589C35.5733 23.6307 35.2719 23.9322 34.9 23.9322H33.4013C32.6576 23.9322 32.0546 23.3293 32.0546 22.5855V13.5095Z" fill="#605DEC"/>
<path d="M45.3511 12.565C46.3298 12.565 47.1998 12.8136 47.961 13.3107C48.7378 13.7928 49.3359 14.4783 49.7553 15.3672C50.1903 16.2411 50.4078 17.2505 50.4078 18.3955C50.4078 19.5405 50.1903 20.5499 49.7553 21.4237C49.3359 22.2825 48.7455 22.9454 47.9843 23.4124C47.2231 23.8795 46.3454 24.113 45.3511 24.113C44.5744 24.113 43.8675 23.9623 43.2306 23.661C42.6092 23.3446 42.1276 22.9077 41.7858 22.3503V27.4136C41.7858 27.7374 41.5233 28 41.1994 28C39.5799 28 38.2671 26.6872 38.2671 25.0678V13.5095C38.2671 13.1376 38.5686 12.8362 38.9405 12.8362H41.0659C41.4378 12.8362 41.7392 13.1376 41.7392 13.5095V14.3955C42.081 13.823 42.5704 13.3785 43.2073 13.0621C43.8442 12.7307 44.5588 12.565 45.3511 12.565ZM44.3258 21.5141C45.1492 21.5141 45.7861 21.2505 46.2366 20.7232C46.6871 20.1808 46.9124 19.4049 46.9124 18.3955C46.9124 17.371 46.6871 16.58 46.2366 16.0226C45.7861 15.4501 45.1492 15.1638 44.3258 15.1638C43.5025 15.1638 42.8655 15.4426 42.415 16C41.9645 16.5424 41.7392 17.3258 41.7392 18.3503C41.7392 19.3597 41.9645 20.1431 42.415 20.7006C42.8655 21.2429 43.5025 21.5141 44.3258 21.5141Z" fill="#605DEC"/>
<path d="M65.038 12.565C66.343 12.565 67.3139 12.9492 67.9508 13.7175C68.5878 14.4859 68.9062 15.661 68.9062 17.2429V22.5855C68.9062 23.3293 68.3033 23.9322 67.5595 23.9322H66.7342C65.9905 23.9322 65.3876 23.3293 65.3876 22.5855V17.3559C65.3876 16.6026 65.2633 16.0603 65.0147 15.7288C64.7817 15.3974 64.3778 15.2316 63.803 15.2316C62.7111 15.2316 62.3297 16.2423 62.3297 17.8079V22.5855C62.3297 23.3293 61.7268 23.9322 60.983 23.9322H60.1577C59.414 23.9322 58.811 23.3293 58.811 22.5855V17.3559C58.811 16.6026 58.6868 16.0603 58.4382 15.7288C58.2052 15.3974 57.8013 15.2316 57.2265 15.2316C56.1345 15.2316 55.7532 16.2423 55.7532 17.8079V22.5855C55.7532 23.3293 55.1503 23.9322 54.4065 23.9322H53.5812C52.8375 23.9322 52.2345 23.3293 52.2345 22.5855V14.8562C52.2345 13.7406 53.1389 12.8362 54.2546 12.8362H54.9867C55.3585 12.8362 55.66 13.1376 55.66 13.5095V14.3277C56.4301 13.0937 56.7766 12.565 58.5081 12.565C60.2014 12.565 61.3355 13.2505 61.9103 14.6215C62.7031 13.276 63.1994 12.565 65.038 12.565Z" fill="#605DEC"/>
<path d="M75.9899 12.565C77.6988 12.565 78.9571 12.9567 79.765 13.7401C80.5883 14.5235 81 15.7363 81 17.3785V22.2489C81 23.3535 80.1046 24.2489 79 24.2489H77.6677V22.2825C77.4347 22.855 77.0463 23.307 76.5026 23.6384C75.9589 23.9548 75.3219 24.113 74.5918 24.113C73.815 24.113 73.1082 23.9623 72.4712 23.661C71.8498 23.3597 71.3527 22.9379 70.9799 22.3955C70.6226 21.8531 70.4439 21.2505 70.4439 20.5876C70.4439 19.774 70.6537 19.1337 71.0731 18.6667C71.5081 18.1996 72.1994 17.8606 73.147 17.6497C74.0947 17.4388 75.3918 17.3333 77.0386 17.3333H77.6444V16.9266C77.6444 16.2637 77.4968 15.7966 77.2017 15.5254C76.9065 15.2542 76.3939 15.1186 75.6637 15.1186C75.1044 15.1186 74.483 15.2166 73.7995 15.4124C73.5669 15.4791 73.338 15.5544 73.1126 15.6385C72.4147 15.8988 71.594 15.6184 71.3124 14.9289C71.0809 14.3619 71.2958 13.7038 71.8596 13.4647C72.297 13.2792 72.7805 13.1149 73.3101 12.9718C74.2733 12.7006 75.1666 12.565 75.9899 12.565ZM75.3608 21.7627C76.0443 21.7627 76.5958 21.5443 77.0153 21.1073C77.4347 20.6554 77.6444 20.0753 77.6444 19.3672V18.9831H77.2483C75.9899 18.9831 75.1044 19.081 74.5918 19.2768C74.0947 19.4727 73.8461 19.8267 73.8461 20.339C73.8461 20.7458 73.9859 21.0847 74.2656 21.3559C74.5607 21.6271 74.9258 21.7627 75.3608 21.7627Z" fill="#605DEC"/>
<path d="M36 9C36 10.1046 35.1046 11 34 11C32.8954 11 32 10.1046 32 9C32 7.89543 32.8954 7 34 7C35.1046 7 36 7.89543 36 9Z" fill="#605DEC"/>
</svg>
