<svg width="72" height="21" viewBox="0 0 72 21" fill="none" xmlns="http://www.w3.org/2000/svg">
<path d="M5.14987 3.87006H0V1H13.9349V3.87006H8.78508V16.3263C8.78508 16.6609 8.51382 16.9322 8.17921 16.9322C6.50615 16.9322 5.14987 15.5759 5.14987 13.9029V3.87006Z" fill="#605DEC"/>
<path d="M21.784 7.0616C21.838 7.78856 21.3037 8.4265 20.5786 8.50097L19.9002 8.57062C18.9215 8.66102 18.2302 8.93221 17.8263 9.38418C17.4224 9.82109 17.2204 10.4087 17.2204 11.1469V16.2589C17.2204 16.6307 16.919 16.9322 16.5471 16.9322H15.0484C14.3047 16.9322 13.7017 16.3293 13.7017 15.5855V6.50951C13.7017 6.13763 14.0032 5.83616 14.3751 5.83616H16.4073C16.7791 5.83616 17.0806 6.13763 17.0806 6.50951V7.71187C17.6554 6.43126 18.8438 5.7307 20.6459 5.61017C21.2135 5.57264 21.7052 5.99983 21.7473 6.5671L21.784 7.0616Z" fill="#605DEC"/>
<path d="M23.0546 6.50951C23.0546 6.13763 23.3561 5.83616 23.728 5.83616H25.9C26.2719 5.83616 26.5733 6.13763 26.5733 6.50951V16.2589C26.5733 16.6307 26.2719 16.9322 25.9 16.9322H24.4013C23.6576 16.9322 23.0546 16.3293 23.0546 15.5855V6.50951Z" fill="#605DEC"/>
<path d="M36.3511 5.56497C37.3298 5.56497 38.1998 5.81356 38.961 6.31073C39.7378 6.79284 40.3359 7.47834 40.7553 8.36723C41.1903 9.24105 41.4078 10.2505 41.4078 11.3955C41.4078 12.5405 41.1903 13.5499 40.7553 14.4237C40.3359 15.2825 39.7455 15.9454 38.9843 16.4124C38.2231 16.8795 37.3454 17.113 36.3511 17.113C35.5744 17.113 34.8675 16.9623 34.2306 16.661C33.6092 16.3446 33.1276 15.9077 32.7858 15.3503V20.4136C32.7858 20.7374 32.5233 21 32.1994 21C30.5799 21 29.2671 19.6872 29.2671 18.0678V6.50951C29.2671 6.13763 29.5686 5.83616 29.9405 5.83616H32.0659C32.4378 5.83616 32.7392 6.13763 32.7392 6.50951V7.39548C33.081 6.82298 33.5704 6.37853 34.2073 6.06215C34.8442 5.7307 35.5588 5.56497 36.3511 5.56497ZM35.3258 14.5141C36.1492 14.5141 36.7861 14.2505 37.2366 13.7232C37.6871 13.1808 37.9124 12.4049 37.9124 11.3955C37.9124 10.371 37.6871 9.58004 37.2366 9.0226C36.7861 8.45009 36.1492 8.16384 35.3258 8.16384C34.5025 8.16384 33.8655 8.44256 33.415 9C32.9645 9.54237 32.7392 10.3258 32.7392 11.3503C32.7392 12.3597 32.9645 13.1431 33.415 13.7006C33.8655 14.2429 34.5025 14.5141 35.3258 14.5141Z" fill="#605DEC"/>
<path d="M56.038 5.56497C57.343 5.56497 58.3139 5.94915 58.9508 6.71752C59.5878 7.48588 59.9062 8.66102 59.9062 10.2429V15.5855C59.9062 16.3293 59.3033 16.9322 58.5595 16.9322H57.7342C56.9905 16.9322 56.3876 16.3293 56.3876 15.5855V10.3559C56.3876 9.60264 56.2633 9.06026 56.0147 8.72881C55.7817 8.39736 55.3778 8.23164 54.803 8.23164C53.7111 8.23164 53.3297 9.2423 53.3297 10.8079V15.5855C53.3297 16.3293 52.7268 16.9322 51.983 16.9322H51.1577C50.414 16.9322 49.811 16.3293 49.811 15.5855V10.3559C49.811 9.60264 49.6868 9.06026 49.4382 8.72881C49.2052 8.39736 48.8013 8.23164 48.2265 8.23164C47.1345 8.23164 46.7532 9.2423 46.7532 10.8079V15.5855C46.7532 16.3293 46.1503 16.9322 45.4065 16.9322H44.5812C43.8375 16.9322 43.2345 16.3293 43.2345 15.5855V7.85621C43.2345 6.74057 44.1389 5.83616 45.2546 5.83616H45.9867C46.3585 5.83616 46.66 6.13763 46.66 6.50951V7.32768C47.4301 6.09371 47.7766 5.56497 49.5081 5.56497C51.2014 5.56497 52.3355 6.25047 52.9103 7.62147C53.7031 6.27596 54.1994 5.56497 56.038 5.56497Z" fill="#605DEC"/>
<path d="M66.9899 5.56497C68.6988 5.56497 69.9571 5.95669 70.765 6.74011C71.5883 7.52354 72 8.73635 72 10.3785V15.2489C72 16.3535 71.1046 17.2489 70 17.2489H68.6677V15.2825C68.4347 15.855 68.0463 16.307 67.5026 16.6384C66.9589 16.9548 66.3219 17.113 65.5918 17.113C64.815 17.113 64.1082 16.9623 63.4712 16.661C62.8498 16.3597 62.3527 15.9379 61.9799 15.3955C61.6226 14.8531 61.4439 14.2505 61.4439 13.5876C61.4439 12.774 61.6537 12.1337 62.0731 11.6667C62.5081 11.1996 63.1994 10.8606 64.147 10.6497C65.0947 10.4388 66.3918 10.3333 68.0386 10.3333H68.6444V9.92655C68.6444 9.26365 68.4968 8.79661 68.2017 8.52542C67.9065 8.25424 67.3939 8.11864 66.6637 8.11864C66.1044 8.11864 65.483 8.21657 64.7995 8.41243C64.5669 8.47907 64.338 8.55443 64.1126 8.63851C63.4147 8.89885 62.594 8.61843 62.3124 7.92889C62.0809 7.36194 62.2958 6.70379 62.8596 6.4647C63.297 6.27921 63.7805 6.11489 64.3101 5.97175C65.2733 5.70057 66.1666 5.56497 66.9899 5.56497ZM66.3608 14.7627C67.0443 14.7627 67.5958 14.5443 68.0153 14.1073C68.4347 13.6554 68.6444 13.0753 68.6444 12.3672V11.9831H68.2483C66.9899 11.9831 66.1044 12.081 65.5918 12.2768C65.0947 12.4727 64.8461 12.8267 64.8461 13.339C64.8461 13.7458 64.9859 14.0847 65.2656 14.3559C65.5607 14.6271 65.9258 14.7627 66.3608 14.7627Z" fill="#605DEC"/>
<path d="M27 2C27 3.10457 26.1046 4 25 4C23.8954 4 23 3.10457 23 2C23 0.89543 23.8954 0 25 0C26.1046 0 27 0.89543 27 2Z" fill="#605DEC"/>
</svg>
