<svg width="32" height="32" viewBox="0 0 32 32" fill="none" xmlns="http://www.w3.org/2000/svg">
<path fill-rule="evenodd" clip-rule="evenodd" d="M8 10C8.55228 10 9 10.4477 9 11V17H15V13C15 12.4477 15.4477 12 16 12H22.0406C23.4706 12 24.6932 13.0118 24.8297 14.4353C24.8998 15.1657 24.9605 16.0333 24.9865 17H25V18V21C25 21.5523 24.5523 22 24 22C23.4477 22 23 21.5523 23 21V19H9V21C9 21.5523 8.55228 22 8 22C7.44772 22 7 21.5523 7 21V18V11C7 10.4477 7.44772 10 8 10ZM12 16C13.1046 16 14 15.1046 14 14C14 12.8954 13.1046 12 12 12C10.8954 12 10 12.8954 10 14C10 15.1046 10.8954 16 12 16Z" fill="#6E7491"/>
</svg>
