<svg width="32" height="32" viewBox="0 0 32 32" fill="none" xmlns="http://www.w3.org/2000/svg">
<path fill-rule="evenodd" clip-rule="evenodd" d="M23 16C23 19.866 19.866 23 16 23C12.134 23 9 19.866 9 16C9 12.134 12.134 9 16 9C19.866 9 23 12.134 23 16ZM25 16C25 20.9706 20.9706 25 16 25C11.0294 25 7 20.9706 7 16C7 11.0294 11.0294 7 16 7C20.9706 7 25 11.0294 25 16ZM15.6482 11.0971C15.7532 10.8088 15.8382 10.5751 16.3081 10.7461C16.7779 10.9171 16.6928 11.1508 16.5879 11.4391L16.2843 12.2733L17.224 12.6153L17.5276 11.7811C17.6325 11.4928 17.7176 11.2591 18.1875 11.4301C18.6573 11.6011 18.5722 11.8348 18.4673 12.1232L18.1425 13.0155C18.552 13.2452 18.8556 13.5104 19.0534 13.8112C19.36 14.2726 19.4042 14.8032 19.186 15.4027C19.0669 15.73 18.8776 15.9885 18.618 16.178C18.3596 16.3646 18.0594 16.4614 17.7173 16.4685C18.0287 16.6789 18.235 16.9497 18.3361 17.281C18.4403 17.6133 18.4239 17.9676 18.287 18.3439C18.0532 18.9862 17.6712 19.398 17.1411 19.5792C16.7412 19.7159 16.2756 19.7242 15.7445 19.6041L15.4271 20.476C15.3222 20.7643 15.2371 20.998 14.7673 20.827C14.2974 20.656 14.3825 20.4223 14.4874 20.134L14.7924 19.2959L13.8527 18.9539L13.5477 19.792C13.4428 20.0803 13.3577 20.314 12.8879 20.143C12.418 19.972 12.5031 19.7383 12.608 19.4499L12.9131 18.6119L12.7157 18.5401C12.4562 18.4456 12.3224 18.1587 12.4169 17.8992L12.4683 17.7579C12.5109 17.6408 12.5958 17.5438 12.7063 17.486L13.0407 17.3109L13.1851 16.9143L14.5531 13.1555L14.6747 12.8217L14.5336 12.5484C14.4704 12.4259 14.4612 12.2824 14.5084 12.1528C14.6017 11.8963 14.8853 11.7641 15.1418 11.8574L15.3446 11.9313L15.6482 11.0971ZM15.0429 16.0927L14.3866 17.8959L15.5658 18.3251C15.8901 18.4432 16.1703 18.4585 16.4064 18.3713C16.6467 18.2821 16.8164 18.1013 16.9155 17.8291C17.1382 17.2173 16.9346 16.7916 16.3047 16.552L15.0429 16.0927ZM15.397 15.12L16.4156 15.4907C17.1144 15.7312 17.5624 15.5808 17.7594 15.0393C17.8696 14.7365 17.86 14.487 17.7304 14.2909C17.6051 14.0929 17.3527 13.9248 16.9734 13.7868L16.0099 13.4361L15.397 15.12Z" fill="#6E7491"/>
</svg>
