<svg width="32" height="32" viewBox="0 0 32 32" fill="none" xmlns="http://www.w3.org/2000/svg">
<path fill-rule="evenodd" clip-rule="evenodd" d="M8 10C8 8.34315 9.34315 7 11 7H21C22.6569 7 24 8.34315 24 10C24.5523 10 25 10.4477 25 11V13C25 13.5523 24.5523 14 24 14V20C24 21.1046 23.1046 22 22 22V24C22 24.5523 21.5523 25 21 25H20C19.4477 25 19 24.5523 19 24V22H13V24C13 24.5523 12.5523 25 12 25H11C10.4477 25 10 24.5523 10 24V22C8.89543 22 8 21.1046 8 20V14C7.44772 14 7 13.5523 7 13V11C7 10.4477 7.44772 10 8 10ZM13.5 9C13.5 8.72386 13.7239 8.5 14 8.5H18C18.2761 8.5 18.5 8.72386 18.5 9C18.5 9.27614 18.2761 9.5 18 9.5H14C13.7239 9.5 13.5 9.27614 13.5 9ZM20.5 20C21.3284 20 22 19.3284 22 18.5C22 17.6716 21.3284 17 20.5 17C19.6716 17 19 17.6716 19 18.5C19 19.3284 19.6716 20 20.5 20ZM13 18.5C13 19.3284 12.3284 20 11.5 20C10.6716 20 10 19.3284 10 18.5C10 17.6716 10.6716 17 11.5 17C12.3284 17 13 17.6716 13 18.5ZM11 11C10.4477 11 10 11.4477 10 12V14C10 14.5523 10.4477 15 11 15H15V11H11ZM17 11H21C21.5523 11 22 11.4477 22 12V14C22 14.5523 21.5523 15 21 15H17V11Z" fill="#6E7491"/>
</svg>
