<svg width="32" height="32" viewBox="0 0 32 32" fill="none" xmlns="http://www.w3.org/2000/svg">
<path fill-rule="evenodd" clip-rule="evenodd" d="M12 7.5C12.5523 7.5 13 7.94772 13 8.5V10H19V8.5C19 7.94772 19.4477 7.5 20 7.5C20.5523 7.5 21 7.94772 21 8.5V10H23C24.1046 10 25 10.8954 25 12V22C25 23.1046 24.1046 24 23 24H9C7.89543 24 7 23.1046 7 22V12C7 10.8954 7.89543 10 9 10H11V8.5C11 7.94772 11.4477 7.5 12 7.5ZM19 12V12.5C19 13.0523 19.4477 13.5 20 13.5C20.5523 13.5 21 13.0523 21 12.5V12H23V22H9L9 12H11V12.5C11 13.0523 11.4477 13.5 12 13.5C12.5523 13.5 13 13.0523 13 12.5V12H19Z" fill="#6E7491"/>
</svg>
