<svg width="32" height="32" viewBox="0 0 32 32" fill="none" xmlns="http://www.w3.org/2000/svg">
<path fill-rule="evenodd" clip-rule="evenodd" d="M12 8C12.5523 8 13 8.44772 13 9V12C13 12.5523 12.5523 13 12 13C11.4477 13 11 12.5523 11 12V9C11 8.44772 11.4477 8 12 8ZM18 10H14V12H18V10ZM22 12L23 12V14.5H9V12L10 12V10H8.5C7.67157 10 7 10.6716 7 11.5V15.5V23.5C7 24.3284 7.67157 25 8.5 25H23.5C24.3284 25 25 24.3284 25 23.5V15.5V11.5C25 10.6716 24.3284 10 23.5 10H22V12ZM23 16.5H9V23H23V16.5ZM21 9C21 8.44772 20.5523 8 20 8C19.4477 8 19 8.44772 19 9V12C19 12.5523 19.4477 13 20 13C20.5523 13 21 12.5523 21 12V9Z" fill="#6E7491"/>
</svg>
