<svg width="32" height="32" viewBox="0 0 32 32" fill="none" xmlns="http://www.w3.org/2000/svg">
<path fill-rule="evenodd" clip-rule="evenodd" d="M11 7C11.5523 7 12 7.44772 12 8V11C12 11.5523 11.5523 12 11 12C10.4477 12 10 11.5523 10 11V8C10 7.44772 10.4477 7 11 7ZM19 10H13V11C13 12.1046 12.1046 13 11 13C9.89543 13 9 12.1046 9 11V10H8.5C7.67157 10 7 10.6716 7 11.5V12.5V14V23.5C7 24.3284 7.67157 25 8.5 25H23.5C24.3284 25 25 24.3284 25 23.5V14V12.5V11.5C25 10.6716 24.3284 10 23.5 10H23V11C23 12.1046 22.1046 13 21 13C19.8954 13 19 12.1046 19 11V10ZM9 15V23H23V15H9ZM22 8C22 7.44772 21.5523 7 21 7C20.4477 7 20 7.44772 20 8V11C20 11.5523 20.4477 12 21 12C21.5523 12 22 11.5523 22 11V8Z" fill="#6E7491"/>
</svg>
