<svg width="32" height="32" viewBox="0 0 32 32" fill="none" xmlns="http://www.w3.org/2000/svg">
<path fill-rule="evenodd" clip-rule="evenodd" d="M14.5352 8C13.8665 8 13.242 8.3342 12.8711 8.8906L11.4648 11H9C7.89543 11 7 11.8954 7 13V22C7 23.1046 7.89543 24 9 24H23C24.1046 24 25 23.1046 25 22V13C25 11.8954 24.1046 11 23 11H20.5352L19.1289 8.8906C18.758 8.3342 18.1335 8 17.4648 8H14.5352ZM14.5352 10H17.4648L18.8711 12.1094C19.242 12.6658 19.8665 13 20.5352 13H23V22H9V13H11.4648C12.1335 13 12.758 12.6658 13.1289 12.1094L14.5352 10ZM18 17C18 18.1046 17.1046 19 16 19C14.8954 19 14 18.1046 14 17C14 15.8954 14.8954 15 16 15C17.1046 15 18 15.8954 18 17ZM20 17C20 19.2091 18.2091 21 16 21C13.7909 21 12 19.2091 12 17C12 14.7909 13.7909 13 16 13C18.2091 13 20 14.7909 20 17Z" fill="#6E7491"/>
</svg>
