<svg width="32" height="32" viewBox="0 0 32 32" fill="none" xmlns="http://www.w3.org/2000/svg">
<path fill-rule="evenodd" clip-rule="evenodd" d="M9.5822 14.5068C9.82329 13.0602 11.0749 12 12.5414 12H19.4586C20.9251 12 22.1767 13.0602 22.4178 14.5068L22.5 15H23.5C23.7761 15 24 15.2239 24 15.5C24 16.0523 23.5523 16.5 23 16.5H22.75L22.8762 17.257C24.1226 17.7703 25 18.997 25 20.4286C25 21.653 24.1442 22.6776 22.998 22.9367C22.9993 22.9577 23 22.9787 23 23V24C23 24.5523 22.5523 25 22 25H21C20.4477 25 20 24.5523 20 24V23H12V24C12 24.5523 11.5523 25 11 25H10C9.44772 25 9 24.5523 9 24V23C9 22.9787 9.00066 22.9577 9.00197 22.9367C7.85584 22.6776 7 21.653 7 20.4286C7 18.997 7.87742 17.7703 9.12384 17.257L9.25 16.5H9C8.44772 16.5 8 16.0523 8 15.5C8 15.2239 8.22386 15 8.5 15H9.5L9.5822 14.5068ZM11 17H21L20.8346 16.3051C20.5128 14.9537 19.3053 14 17.9161 14H14.0839C12.6947 14 11.4872 14.9537 11.1654 16.3051L11 17ZM21.5 21.2857C22.3284 21.2857 23 21.2857 23 20C23 19.2899 22.8284 19.1429 22 19.1429C21.1716 19.1429 20.5 19.7185 20.5 20.4286C20.5 21.1387 20.6716 21.2857 21.5 21.2857ZM11.5 20.4286C11.5 21.1387 11.3284 21.2857 10.5 21.2857C9.67157 21.2857 9 21.2857 9 20C9 19.2899 9.17157 19.1429 10 19.1429C10.8284 19.1429 11.5 19.7185 11.5 20.4286Z" fill="#6E7491"/>
</svg>
