<svg width="32" height="32" viewBox="0 0 32 32" fill="none" xmlns="http://www.w3.org/2000/svg">
<path d="M19.2197 14.2634C19.3725 13.9321 19.1305 13.554 18.7657 13.554H13.723C14.2628 11.3736 15.6548 10.2656 17.4091 10.2656C18.389 10.2656 19.2215 10.6094 19.9208 11.0917C20.1933 11.2796 20.5803 11.1973 20.7202 10.8974L21.1225 10.0347C21.2159 9.83455 21.1682 9.59499 20.9942 9.45896C20.0045 8.68535 18.7863 8.25568 17.4091 8.25568C14.4404 8.25568 12.196 10.223 11.5213 13.554H10.4154C10.2052 13.554 10.0175 13.6854 9.94559 13.8829L9.777 14.346C9.65827 14.6721 9.89977 15.017 10.2468 15.017H11.3367C11.3225 15.2514 11.3154 15.4929 11.3154 15.7344C11.3154 15.9758 11.3225 16.2102 11.3367 16.4375H10.4166C10.2058 16.4375 10.0177 16.5696 9.94622 16.7679L9.77413 17.2452C9.65662 17.571 9.89807 17.9148 10.2445 17.9148H11.5213C12.196 21.2457 14.4404 23.1989 17.4091 23.1989C18.7312 23.1989 19.9829 22.8124 20.9571 22.0607C21.1327 21.9251 21.1784 21.6837 21.0824 21.4837L20.6625 20.6092C20.5216 20.3158 20.1425 20.2344 19.8707 20.4136C19.213 20.8472 18.3846 21.1889 17.4091 21.1889C15.6548 21.1889 14.2628 20.0881 13.723 17.9148H17.2681C17.4624 17.9148 17.6392 17.8022 17.7213 17.6261L17.9439 17.1488C18.0984 16.8173 17.8565 16.4375 17.4907 16.4375H13.5029C13.4887 16.2102 13.4815 15.9758 13.4815 15.7344C13.4815 15.4858 13.4887 15.2443 13.5029 15.017H18.5521C18.7472 15.017 18.9245 14.9036 19.0062 14.7264L19.2197 14.2634Z" fill="#6E7491"/>
</svg>
