<svg width="32" height="32" viewBox="0 0 32 32" fill="none" xmlns="http://www.w3.org/2000/svg">
<path fill-rule="evenodd" clip-rule="evenodd" d="M16 21C12.5953 21 9.61369 18.984 8.1755 16C9.61369 13.016 12.5953 11 16 11C19.4047 11 22.3863 13.016 23.8245 16C22.3863 18.984 19.4047 21 16 21ZM16 9C20.5502 9 24.4389 11.9026 26 16C24.4389 20.0974 20.5502 23 16 23C11.4498 23 7.56109 20.0974 6 16C7.56109 11.9026 11.4498 9 16 9ZM16 19C17.6569 19 19 17.6569 19 16C19 14.3431 17.6569 13 16 13C14.3431 13 13 14.3431 13 16C13 17.6569 14.3431 19 16 19Z" fill="#6E7491"/>
</svg>
