<svg width="32" height="32" viewBox="0 0 32 32" fill="none" xmlns="http://www.w3.org/2000/svg">
<path fill-rule="evenodd" clip-rule="evenodd" d="M19.6503 9.6527C18.5108 9.23029 17.2816 9 16 9C11.4498 9 7.56109 11.9026 6 16C6.64042 17.6809 7.67257 19.1607 8.98141 20.3215L10.3984 18.9045C9.47831 18.1111 8.71736 17.1243 8.1755 16C9.61369 13.016 12.5953 11 16 11C16.7057 11 17.3932 11.0866 18.0525 11.2505L19.6503 9.6527ZM18.186 13.9454C18.1869 13.9463 18.1878 13.9473 18.1887 13.9482L20.0901 12.0468C20.0889 12.0462 20.0877 12.0455 20.0865 12.0449L21.5488 10.5826C21.5499 10.5833 21.5511 10.584 21.5522 10.5847L24.1998 7.93712C24.5903 7.54659 25.2235 7.54659 25.614 7.93712C26.0046 8.32764 26.0046 8.96081 25.614 9.35133L23.1596 11.8057C24.4016 12.9467 25.3828 14.38 26 16C24.4389 20.0974 20.5502 23 16 23C14.792 23 13.6307 22.7954 12.5471 22.4182L9.61403 25.3513C9.2235 25.7419 8.59034 25.7419 8.19981 25.3513C7.80929 24.9608 7.80929 24.3276 8.19981 23.9371L10.6181 21.5188C10.6169 21.5181 10.6158 21.5174 10.6146 21.5168L12.085 20.0464C12.0862 20.047 12.0874 20.0476 12.0887 20.0483L13.9482 18.1887C13.9473 18.1878 13.9463 18.1869 13.9454 18.186L18.186 13.9454ZM16.2892 13.0138C16.194 13.0047 16.0976 13 16 13C14.3431 13 13 14.3431 13 16C13 16.0976 13.0046 16.194 13.0138 16.2892L16.2892 13.0138ZM21.7442 13.2212L18.9998 15.9656L19 16C19 17.6569 17.6568 19 16 19L15.9656 18.9998L14.1649 20.8005C14.7575 20.9313 15.3715 21 16 21C19.4047 21 22.3863 18.984 23.8245 16C23.3109 14.9343 22.6005 13.9922 21.7442 13.2212Z" fill="#6E7491"/>
</svg>
