<svg width="32" height="32" viewBox="0 0 32 32" fill="none" xmlns="http://www.w3.org/2000/svg">
<path d="M23.5 7H8.5C8.22386 7 8 7.22386 8 7.5V9.78005C8 9.9202 8.05882 10.0539 8.16214 10.1486L13.8379 15.3514C13.9412 15.4461 14 15.5798 14 15.72V25.0979C14 25.4906 14.432 25.73 14.765 25.5219L17.765 23.6469C17.9112 23.5555 18 23.3953 18 23.2229V15.72C18 15.5798 18.0588 15.4461 18.1621 15.3514L23.8379 10.1486C23.9412 10.0539 24 9.9202 24 9.78005V7.5C24 7.22386 23.7761 7 23.5 7Z" stroke="#6E7491" stroke-width="2"/>
</svg>
