<svg width="32" height="32" viewBox="0 0 32 32" fill="none" xmlns="http://www.w3.org/2000/svg">
<path d="M9 24C9 24.5523 9.44772 25 10 25C10.5523 25 11 24.5523 11 24H9ZM11 9C11 8.44772 10.5523 8 10 8C9.44772 8 9 8.44772 9 9H11ZM14.5 10L14.2369 10.9648V10.9648L14.5 10ZM17.5 11.5L17.7631 10.5352V10.5352L17.5 11.5ZM22 11.5H23C23 11.2064 22.8709 10.9275 22.647 10.7375C22.4231 10.5475 22.1271 10.4656 21.8373 10.5133L22 11.5ZM22 19L22.1954 19.9807C22.6632 19.8875 23 19.4769 23 19H22ZM17.5 19L17.8216 18.0531L17.5 19ZM14.5 17L14.8216 16.0531H14.8216L14.5 17ZM11 24V9H9V24H11ZM10 10C10.1627 10.9867 10.1626 10.9867 10.1625 10.9867C10.1624 10.9867 10.1623 10.9867 10.1623 10.9867C10.1622 10.9868 10.1622 10.9868 10.1622 10.9868C10.1622 10.9868 10.1624 10.9867 10.1627 10.9867C10.1634 10.9866 10.1647 10.9863 10.1667 10.986C10.1707 10.9854 10.1772 10.9843 10.1863 10.9829C10.2043 10.9801 10.2322 10.9758 10.269 10.9704C10.3427 10.9596 10.4517 10.9444 10.5886 10.9273C10.863 10.893 11.2457 10.8519 11.6774 10.8246C12.573 10.7679 13.558 10.7796 14.2369 10.9648L14.7631 9.03524C13.7465 8.75799 12.4816 8.7697 11.551 8.8286C11.0696 8.85908 10.6453 8.90468 10.3408 8.94268C10.1883 8.96172 10.065 8.97896 9.97862 8.99163C9.93542 8.99797 9.90141 9.00318 9.87756 9.00691C9.86563 9.00877 9.85623 9.01027 9.84949 9.01135C9.84611 9.01189 9.8434 9.01233 9.84137 9.01266C9.84036 9.01283 9.83951 9.01296 9.83883 9.01307C9.8385 9.01313 9.8382 9.01318 9.83795 9.01322C9.83782 9.01324 9.83767 9.01327 9.83761 9.01328C9.83746 9.0133 9.83732 9.01332 10 10ZM14.2369 10.9648C14.6967 11.0902 15.0116 11.2934 15.446 11.5825C15.8797 11.8711 16.433 12.2455 17.2369 12.4648L17.7631 10.5352C17.3033 10.4098 16.9884 10.2066 16.554 9.91747C16.1203 9.62889 15.567 9.25447 14.7631 9.03524L14.2369 10.9648ZM17.2369 12.4648C18.2535 12.742 19.5184 12.7303 20.449 12.6714C20.9304 12.6409 21.3547 12.5953 21.6592 12.5573C21.8117 12.5383 21.935 12.521 22.0214 12.5084C22.0646 12.502 22.0986 12.4968 22.1224 12.4931C22.1344 12.4912 22.1438 12.4897 22.1505 12.4887C22.1539 12.4881 22.1566 12.4877 22.1586 12.4873C22.1596 12.4872 22.1605 12.487 22.1612 12.4869C22.1615 12.4869 22.1618 12.4868 22.162 12.4868C22.1622 12.4868 22.1623 12.4867 22.1624 12.4867C22.1625 12.4867 22.1627 12.4867 22 11.5C21.8373 10.5133 21.8374 10.5133 21.8375 10.5133C21.8376 10.5133 21.8377 10.5133 21.8377 10.5133C21.8378 10.5132 21.8378 10.5132 21.8378 10.5132C21.8378 10.5132 21.8376 10.5133 21.8373 10.5133C21.8366 10.5134 21.8353 10.5137 21.8333 10.514C21.8293 10.5146 21.8228 10.5157 21.8137 10.5171C21.7957 10.5199 21.7678 10.5242 21.731 10.5296C21.6573 10.5404 21.5483 10.5556 21.4114 10.5727C21.137 10.607 20.7543 10.6481 20.3226 10.6754C19.427 10.7321 18.442 10.7204 17.7631 10.5352L17.2369 12.4648ZM21 11.5V19H23V11.5H21ZM22 19C21.8046 18.0193 21.8047 18.0193 21.8048 18.0192C21.8049 18.0192 21.805 18.0192 21.805 18.0192C21.8051 18.0192 21.8052 18.0192 21.8052 18.0192C21.8053 18.0191 21.8052 18.0192 21.8049 18.0192C21.8043 18.0193 21.803 18.0196 21.8012 18.0199C21.7974 18.0207 21.791 18.0219 21.7821 18.0236C21.7643 18.027 21.7367 18.0321 21.7 18.0386C21.6267 18.0516 21.5179 18.0701 21.3813 18.0907C21.1072 18.1322 20.7257 18.1819 20.2972 18.2149C19.3997 18.284 18.4489 18.2662 17.8216 18.0531L17.1784 19.9469C18.2151 20.299 19.5143 20.2811 20.4508 20.209C20.9393 20.1713 21.3708 20.1151 21.6804 20.0682C21.8357 20.0447 21.9615 20.0235 22.0498 20.0078C22.0939 19.9999 22.1288 19.9935 22.1534 19.9888C22.1657 19.9865 22.1754 19.9846 22.1825 19.9833C22.186 19.9826 22.1888 19.982 22.191 19.9816C22.1921 19.9814 22.193 19.9812 22.1937 19.9811C22.1941 19.981 22.1944 19.9809 22.1947 19.9809C22.1949 19.9808 22.195 19.9808 22.1951 19.9808C22.1953 19.9808 22.1954 19.9807 22 19ZM17.8216 18.0531C17.3787 17.9027 17.1005 17.6571 16.6803 17.2671C16.2671 16.8835 15.712 16.3555 14.8216 16.0531L14.1784 17.9469C14.6213 18.0973 14.8995 18.3429 15.3197 18.7329C15.7329 19.1165 16.288 19.6445 17.1784 19.9469L17.8216 18.0531ZM14.8216 16.0531C13.7849 15.701 12.4857 15.7189 11.5492 15.791C11.0607 15.8287 10.6292 15.8849 10.3196 15.9318C10.1643 15.9553 10.0385 15.9765 9.95025 15.9922C9.90607 16.0001 9.8712 16.0065 9.8466 16.0112C9.83431 16.0135 9.82457 16.0154 9.81753 16.0167C9.81401 16.0174 9.81115 16.018 9.80899 16.0184C9.80791 16.0186 9.807 16.0188 9.80626 16.0189C9.80589 16.019 9.80556 16.0191 9.80528 16.0191C9.80514 16.0192 9.80496 16.0192 9.80489 16.0192C9.80473 16.0193 9.80457 16.0193 10 17C10.1954 17.9807 10.1953 17.9807 10.1952 17.9808C10.1951 17.9808 10.195 17.9808 10.195 17.9808C10.1949 17.9808 10.1948 17.9808 10.1948 17.9808C10.1947 17.9809 10.1948 17.9808 10.1951 17.9808C10.1957 17.9807 10.197 17.9804 10.1988 17.9801C10.2026 17.9793 10.209 17.9781 10.2179 17.9764C10.2357 17.9731 10.2633 17.9679 10.3 17.9614C10.3733 17.9484 10.4821 17.9299 10.6187 17.9093C10.8928 17.8678 11.2743 17.8181 11.7028 17.7851C12.6003 17.716 13.5511 17.7338 14.1784 17.9469L14.8216 16.0531Z" fill="#6E7491"/>
</svg>
