<svg width="32" height="32" viewBox="0 0 32 32" fill="none" xmlns="http://www.w3.org/2000/svg">
<path fill-rule="evenodd" clip-rule="evenodd" d="M9 13V9H13V13H9ZM7 8C7 7.44772 7.44772 7 8 7H14C14.5523 7 15 7.44772 15 8V14C15 14.5523 14.5523 15 14 15H8C7.44772 15 7 14.5523 7 14V8ZM19 13V9H23V13H19ZM17 8C17 7.44772 17.4477 7 18 7H24C24.5523 7 25 7.44772 25 8V14C25 14.5523 24.5523 15 24 15H18C17.4477 15 17 14.5523 17 14V8ZM9 19V23H13V19H9ZM8 17C7.44772 17 7 17.4477 7 18V24C7 24.5523 7.44772 25 8 25H14C14.5523 25 15 24.5523 15 24V18C15 17.4477 14.5523 17 14 17H8ZM19 23V19H23V23H19ZM17 18C17 17.4477 17.4477 17 18 17H24C24.5523 17 25 17.4477 25 18V24C25 24.5523 24.5523 25 24 25H18C17.4477 25 17 24.5523 17 24V18Z" fill="#6E7491"/>
</svg>
