<svg width="32" height="32" viewBox="0 0 32 32" fill="none" xmlns="http://www.w3.org/2000/svg">
<path fill-rule="evenodd" clip-rule="evenodd" d="M15.394 7.20457C15.752 6.93181 16.248 6.93181 16.606 7.20457L24.0871 12.9044C24.5836 13.2827 24.875 13.8711 24.875 14.4953V24C24.875 25.212 23.8096 26 22.75 26H18.5C18.2239 26 18 25.7761 18 25.5V24V19H14V24V25.5C14 25.7761 13.7761 26 13.5 26H9.25C8.19038 26 7.125 25.212 7.125 24V14.4953C7.125 13.8711 7.41642 13.2827 7.91291 12.9044L15.394 7.20457ZM22.75 24H20V18C20 17.4477 19.5523 17 19 17H13C12.4477 17 12 17.4477 12 18V24H9.25C9.18642 24 9.14492 23.9795 9.125 23.9647L9.125 14.4953L16 9.25718L22.875 14.4953V23.9647C22.8551 23.9795 22.8136 24 22.75 24Z" fill="#6E7491"/>
</svg>
