<svg width="32" height="32" viewBox="0 0 32 32" fill="none" xmlns="http://www.w3.org/2000/svg">
<path fill-rule="evenodd" clip-rule="evenodd" d="M8 26V7.00001L18 7V12H15C14.4477 12 14 12.4477 14 13V26H8ZM16.0048 28L16 28H7.5C6.67157 28 6 27.3284 6 26.5V6.50001C6 5.67158 6.67157 5.00001 7.5 5.00001L18.5 5C19.3284 5 20 5.67157 20 6.5V12H25C25.5523 12 26 12.4477 26 13V27C26 27.5523 25.5523 28 25 28H21.2857H18.7143H16.0048ZM16 26V14H24V26H22V23C22 22.4477 21.5523 22 21 22H19C18.4477 22 18 22.4477 18 23V26H16ZM10 9.5C10 9.22386 10.2239 9 10.5 9H11.5C11.7761 9 12 9.22386 12 9.5V10.5C12 10.7761 11.7761 11 11.5 11H10.5C10.2239 11 10 10.7761 10 10.5V9.5ZM10.5 13C10.2239 13 10 13.2239 10 13.5V14.5C10 14.7761 10.2239 15 10.5 15H11.5C11.7761 15 12 14.7761 12 14.5V13.5C12 13.2239 11.7761 13 11.5 13H10.5ZM10 17.5C10 17.2239 10.2239 17 10.5 17H11.5C11.7761 17 12 17.2239 12 17.5V18.5C12 18.7761 11.7761 19 11.5 19H10.5C10.2239 19 10 18.7761 10 18.5V17.5ZM10.5 21C10.2239 21 10 21.2239 10 21.5V22.5C10 22.7761 10.2239 23 10.5 23H11.5C11.7761 23 12 22.7761 12 22.5V21.5C12 21.2239 11.7761 21 11.5 21H10.5ZM14 9.5C14 9.22386 14.2239 9 14.5 9H15.5C15.7761 9 16 9.22386 16 9.5V10.5C16 10.7761 15.7761 11 15.5 11H14.5C14.2239 11 14 10.7761 14 10.5V9.5Z" fill="#6E7491"/>
</svg>
