<svg width="32" height="32" viewBox="0 0 32 32" fill="none" xmlns="http://www.w3.org/2000/svg">
<path fill-rule="evenodd" clip-rule="evenodd" d="M22.6727 13.8796L19.9623 15.4444C20.1121 16.5157 19.8191 17.6094 19.1537 18.4623L20.7185 21.1726C22.7332 19.3384 23.5003 16.4755 22.6727 13.8796ZM18.1204 22.6726L16.5556 19.9623C15.4843 20.1121 14.3906 19.8191 13.5377 19.1536L10.8273 20.7185C12.6616 22.7332 15.5245 23.5003 18.1204 22.6726ZM21.1727 11.2815L18.4623 12.8463C17.6094 12.1809 16.5157 11.8878 15.4444 12.0377L13.8796 9.32731C16.4755 8.49964 19.3384 9.26675 21.1727 11.2815ZM11.2815 10.8273C9.26677 12.6616 8.49966 15.5245 9.32732 18.1204L12.0377 16.5556C11.8879 15.4843 12.1809 14.3905 12.8463 13.5377L11.2815 10.8273ZM20.5 23.7942C24.8046 21.3089 26.2795 15.8046 23.7942 11.5C21.3089 7.19534 15.8046 5.72047 11.5 8.20575C7.19536 10.691 5.72048 16.1953 8.20576 20.5C10.691 24.8046 16.1954 26.2795 20.5 23.7942ZM17 17.732C17.9566 17.1797 18.2843 15.9566 17.732 15C17.1798 14.0434 15.9566 13.7156 15 14.2679C14.0434 14.8202 13.7157 16.0434 14.2679 17C14.8202 17.9566 16.0434 18.2843 17 17.732Z" fill="#6E7491"/>
</svg>
