<svg width="32" height="32" viewBox="0 0 32 32" fill="none" xmlns="http://www.w3.org/2000/svg">
<path d="M11.4369 6.21442C11.1562 5.61237 11.4152 4.89047 12.0424 4.67137C14.6435 3.76255 17.4921 3.77295 20.1042 4.72369C23.0949 5.8122 25.5307 8.04417 26.8757 10.9286C28.2207 13.813 28.3648 17.1136 27.2763 20.1042C26.3256 22.7164 24.5025 24.9052 22.1343 26.3136C21.5634 26.6532 20.8438 26.3876 20.5631 25.7856C20.2823 25.1835 20.548 24.474 21.1103 24.1202C22.9036 22.9917 24.2834 21.2937 25.0158 19.2815C25.8861 16.8903 25.7709 14.2514 24.6955 11.9452C23.6201 9.63906 21.6726 7.85453 19.2815 6.98423C17.2693 6.25184 15.0816 6.21738 13.0644 6.86573C12.4319 7.069 11.7177 6.81648 11.4369 6.21442Z" fill="#6E7491"/>
</svg>
