<svg width="32" height="32" viewBox="0 0 32 32" fill="none" xmlns="http://www.w3.org/2000/svg">
<path fill-rule="evenodd" clip-rule="evenodd" d="M12 13.3333C12 10.7038 13.8571 9 16 9C18.1429 9 20 10.7038 20 13.3333C20 13.6877 19.873 14.3287 19.537 15.2635C19.2155 16.1582 18.7581 17.1732 18.2317 18.22C17.5144 19.6464 16.7004 21.0699 16 22.2372C15.2996 21.0699 14.4856 19.6464 13.7683 18.22C13.2419 17.1732 12.7845 16.1582 12.463 15.2635C12.127 14.3287 12 13.6877 12 13.3333ZM16 7C12.6863 7 10 9.66667 10 13.3333C10 16.1552 13.5537 22.1359 15.1912 24.742C15.5709 25.3462 16.4291 25.3462 16.8088 24.742C18.4463 22.1359 22 16.1552 22 13.3333C22 9.66667 19.3137 7 16 7ZM16 15C17.1046 15 18 14.1046 18 13C18 11.8954 17.1046 11 16 11C14.8954 11 14 11.8954 14 13C14 14.1046 14.8954 15 16 15Z" fill="#6E7491"/>
</svg>
