<svg width="32" height="32" viewBox="0 0 32 32" fill="none" xmlns="http://www.w3.org/2000/svg">
<path fill-rule="evenodd" clip-rule="evenodd" d="M16 7C17.1046 7 18 7.89543 18 9V15C18 16.1046 17.1046 17 16 17C14.8954 17 14 16.1046 14 15V9C14 7.89543 14.8954 7 16 7ZM11 14C11.5523 14 12 14.4477 12 15C12 17.2091 13.7909 19 16 19C18.2091 19 20 17.2091 20 15C20 14.4477 20.4477 14 21 14C21.5523 14 22 14.4477 22 15C22 17.9742 19.836 20.4429 16.9967 20.9176C16.9989 20.9448 17 20.9723 17 21V23H19C19.5523 23 20 23.4477 20 24C20 24.5523 19.5523 25 19 25H16H13C12.4477 25 12 24.5523 12 24C12 23.4477 12.4477 23 13 23H15V21C15 20.9723 15.0011 20.9448 15.0033 20.9176C12.164 20.4429 10 17.9742 10 15C10 14.4477 10.4477 14 11 14Z" fill="#6E7491"/>
</svg>
