<svg width="32" height="32" viewBox="0 0 32 32" fill="none" xmlns="http://www.w3.org/2000/svg">
<mask id="path-1-inside-1_889_138" fill="white">
<path d="M18.8853 8.08527C18.9178 8.05278 18.952 8.0228 18.9903 7.99735C19.3586 7.75251 21.485 6.51447 23.799 8.82843C26.1129 11.1424 24.8749 13.2688 24.6301 13.6371C24.6046 13.6754 24.5746 13.7096 24.5421 13.7421L14.8217 23.4625C14.6993 23.585 14.5471 23.6736 14.3801 23.7195L8.52527 25.3317C7.77717 25.5377 7.08967 24.8503 7.29567 24.1021L8.90788 18.2473C8.95386 18.0803 9.04242 17.9281 9.16489 17.8057L18.8853 8.08527Z"/>
</mask>
<path d="M17.2279 11.299L21.4706 15.5416L22.8848 14.1274L18.6421 9.88479L17.2279 11.299ZM8.52527 25.3317L7.99431 23.4035L8.52527 25.3317ZM7.29567 24.1021L9.22391 24.6331L7.29567 24.1021ZM8.90788 18.2473L10.8361 18.7783L8.90788 18.2473ZM14.3801 23.7195L13.8492 21.7913L14.3801 23.7195ZM24.6301 13.6371L26.2956 14.7443L24.6301 13.6371ZM23.1279 12.3279L13.4075 22.0483L16.236 24.8767L25.9564 15.1563L23.1279 12.3279ZM10.5791 19.2199L20.2995 9.49949L17.4711 6.67106L7.75067 16.3915L10.5791 19.2199ZM13.8492 21.7913L7.99431 23.4035L9.05623 27.26L14.9111 25.6478L13.8492 21.7913ZM9.22391 24.6331L10.8361 18.7783L6.97965 17.7163L5.36744 23.5712L9.22391 24.6331ZM20.0975 9.66292C20.1292 9.64185 20.4074 9.4719 20.7822 9.44991C21.0609 9.43355 21.6188 9.47667 22.3848 10.2426L25.2132 7.41421C23.6652 5.86623 22.0029 5.37139 20.5479 5.45677C19.1889 5.53652 18.2197 6.10802 17.8831 6.33179L20.0975 9.66292ZM22.3848 10.2426C23.1507 11.0086 23.1939 11.5665 23.1775 11.8452C23.1555 12.22 22.9856 12.4982 22.9645 12.5299L26.2956 14.7443C26.5194 14.4077 27.0909 13.4386 27.1706 12.0796C27.256 10.6245 26.7612 8.9622 25.2132 7.41421L22.3848 10.2426ZM7.99431 23.4035C8.74242 23.1975 9.42991 23.885 9.22391 24.6331L5.36744 23.5712C4.74944 25.8155 6.81191 27.878 9.05623 27.26L7.99431 23.4035ZM7.75067 16.3915C7.38327 16.7589 7.11759 17.2154 6.97965 17.7163L10.8361 18.7783C10.7901 18.9452 10.7016 19.0974 10.5791 19.2199L7.75067 16.3915ZM13.4075 22.0483C13.53 21.9258 13.6822 21.8373 13.8492 21.7913L14.9111 25.6478C15.412 25.5098 15.8685 25.2441 16.236 24.8767L13.4075 22.0483ZM25.9564 15.1563C26.0484 15.0643 26.1741 14.9271 26.2956 14.7443L22.9645 12.5299C23.0351 12.4237 23.1009 12.355 23.1279 12.3279L25.9564 15.1563ZM20.2995 9.49949C20.2725 9.52653 20.2037 9.59231 20.0975 9.66292L17.8831 6.33179C17.7003 6.45328 17.5631 6.57902 17.4711 6.67106L20.2995 9.49949Z" fill="#6E7491" mask="url(#path-1-inside-1_889_138)"/>
</svg>
