<svg width="32" height="32" viewBox="0 0 32 32" fill="none" xmlns="http://www.w3.org/2000/svg">
<path fill-rule="evenodd" clip-rule="evenodd" d="M13 9C13 10.1046 12.1046 11 11 11C9.89543 11 9 10.1046 9 9C9 7.89543 9.89543 7 11 7C12.1046 7 13 7.89543 13 9ZM9.1405 13.124C9.0659 12.5272 9.53128 12 10.1328 12H12.2344C13.2431 12 14.0939 12.7511 14.219 13.7519L14.625 17H16.5585C17.4193 17 18.1836 17.5509 18.4558 18.3675L19 20L20.1967 23.9891C20.3479 24.4929 19.9706 25 19.4446 25C19.1688 25 18.9132 24.8553 18.7713 24.6188L16 20H15H12H11.7656C10.7569 20 9.90612 19.2489 9.78101 18.2481L9.1405 13.124ZM9 21C8.44772 21 8 21.4477 8 22C8 22.5523 8.44772 23 9 23H14.5C15.0523 23 15.5 22.5523 15.5 22C15.5 21.4477 15.0523 21 14.5 21H9Z" fill="#6E7491"/>
</svg>
