<svg width="32" height="32" viewBox="0 0 32 32" fill="none" xmlns="http://www.w3.org/2000/svg">
<path fill-rule="evenodd" clip-rule="evenodd" d="M15 11C16.1046 11 17 10.1046 17 9C17 7.89543 16.1046 7 15 7C13.8954 7 13 7.89543 13 9C13 10.1046 13.8954 11 15 11ZM11.5457 15.8639C11.9841 15.6556 12.4717 15.9395 12.5986 16.408C12.7254 16.8764 12.4382 17.3495 12.0228 17.6006C11.7941 17.7389 11.583 17.9063 11.395 18.0997C11.0016 18.5043 10.7243 19.0073 10.5922 19.556C10.46 20.1046 10.478 20.6788 10.644 21.2181C10.8101 21.7575 11.1183 22.2422 11.5362 22.6215C11.954 23.0008 12.4663 23.2607 13.0192 23.374C13.572 23.4872 14.1452 23.4496 14.6786 23.2651C15.2119 23.0806 15.6858 22.756 16.0505 22.3253C16.2248 22.1196 16.3711 21.8932 16.4866 21.6523C16.6964 21.2146 17.1396 20.883 17.6181 20.964C18.0966 21.0451 18.4263 21.503 18.2612 21.9595C18.0638 22.5056 17.7701 23.0146 17.3917 23.4613C16.8232 24.1326 16.0845 24.6385 15.2531 24.9261C14.4218 25.2137 13.5284 25.2723 12.6665 25.0958C11.8047 24.9193 11.0063 24.5142 10.3549 23.923C9.70349 23.3317 9.22317 22.5761 8.96428 21.7354C8.70538 20.8946 8.67745 19.9997 8.88341 19.1445C9.08937 18.2892 9.52164 17.5051 10.1349 16.8744C10.543 16.4547 11.0212 16.1132 11.5457 15.8639ZM13.1405 13.124C13.0659 12.5272 13.5313 12 14.1328 12H16.2344C16.2713 12 16.308 12.001 16.3444 12.003C16.3675 12.003 16.3908 12.0038 16.4142 12.0055L22.4231 12.428C22.974 12.4668 23.3892 12.9448 23.3505 13.4957C23.3117 14.0466 22.8337 14.4618 22.2828 14.4231L18.2676 14.1408L18.625 17H20.5585C21.4193 17 22.1836 17.5509 22.4558 18.3675L23 20L24.1967 23.9891C24.3479 24.4929 23.9706 25 23.4446 25C23.1688 25 22.9132 24.8553 22.7713 24.6188L20 20H19H16H15.7656C14.7569 20 13.9061 19.2489 13.781 18.2481L13.1405 13.124Z" fill="#6E7491"/>
</svg>
