<svg width="32" height="32" viewBox="0 0 32 32" fill="none" xmlns="http://www.w3.org/2000/svg">
<path fill-rule="evenodd" clip-rule="evenodd" d="M11 11C12.1046 11 13 10.1046 13 9C13 7.89543 12.1046 7 11 7C9.89543 7 9 7.89543 9 9C9 10.1046 9.89543 11 11 11ZM10.1328 12C9.53128 12 9.0659 12.5272 9.1405 13.124L9.78101 18.2481C9.90612 19.2489 10.7569 20 11.7656 20H12H15H16L18.7713 24.6188C18.9132 24.8553 19.1688 25 19.4446 25C19.9706 25 20.3479 24.4929 20.1967 23.9891L19 20L18.4558 18.3675C18.1836 17.5509 17.4193 17 16.5585 17H14.625L14.219 13.7519C14.0939 12.7511 13.2431 12 12.2344 12H10.1328ZM8 22C8 21.4477 8.44772 21 9 21H14.5C15.0523 21 15.5 21.4477 15.5 22C15.5 22.5523 15.0523 23 14.5 23H9C8.44772 23 8 22.5523 8 22ZM13.1193 15.1461L11.8767 16.5054L10.634 15.1461C10.2909 14.7708 10.2909 14.1622 10.634 13.7869C10.9772 13.4116 11.5335 13.4116 11.8767 13.7869C12.2198 13.4116 12.7762 13.4116 13.1193 13.7869C13.4625 14.1622 13.4625 14.7708 13.1193 15.1461Z" fill="#6E7491"/>
</svg>
