<svg width="32" height="32" viewBox="0 0 32 32" fill="none" xmlns="http://www.w3.org/2000/svg">
<path fill-rule="evenodd" clip-rule="evenodd" d="M13 9C13 10.1046 12.1046 11 11 11C9.89543 11 9 10.1046 9 9C9 7.89543 9.89543 7 11 7C12.1046 7 13 7.89543 13 9ZM9.1405 13.124C9.0659 12.5272 9.53128 12 10.1328 12H12.2344C12.2713 12 12.308 12.001 12.3444 12.003C12.3675 12.003 12.3908 12.0038 12.4142 12.0055L18.4231 12.428C18.974 12.4668 19.3892 12.9448 19.3505 13.4957C19.3117 14.0466 18.8337 14.4618 18.2828 14.4231L14.2676 14.1408L14.625 17H16.5585C17.4193 17 18.1836 17.5509 18.4558 18.3675L19 20L20.1967 23.9891C20.3479 24.4929 19.9706 25 19.4446 25C19.1688 25 18.9132 24.8553 18.7713 24.6188L16 20H15H12H11.7656C10.7569 20 9.90612 19.2489 9.78101 18.2481L9.1405 13.124ZM9 21C8.44772 21 8 21.4477 8 22C8 22.5523 8.44772 23 9 23H14.5C15.0523 23 15.5 22.5523 15.5 22C15.5 21.4477 15.0523 21 14.5 21H9ZM22.5032 11.25C21.9267 11.25 21.4499 11.4305 21.0856 11.7442C20.735 12.0462 20.5384 12.4283 20.4262 12.7593C20.3136 13.0915 20.2727 13.4112 20.2579 13.639C20.2504 13.7551 20.2493 13.853 20.2503 13.9242C20.2508 13.9599 20.2518 13.9892 20.2528 14.0111L20.2542 14.0384L20.2547 14.0477L20.255 14.0513L20.2551 14.0528L20.2551 14.0534C20.2552 14.0537 20.2552 14.054 21.0032 14L20.2552 14.054C20.285 14.4672 20.6441 14.7779 21.0573 14.7481C21.4691 14.7183 21.7792 14.3614 21.7516 13.9499L21.7513 13.9439C21.7509 13.9366 21.7504 13.9229 21.7502 13.9039C21.7496 13.8657 21.7502 13.8074 21.7548 13.736C21.7643 13.5888 21.79 13.4085 21.8469 13.2407C21.9041 13.0717 21.9797 12.9538 22.0645 12.8808C22.1357 12.8195 22.2575 12.75 22.5032 12.75C22.7489 12.75 22.8708 12.8195 22.9419 12.8808C23.0267 12.9538 23.1023 13.0717 23.1596 13.2407C23.2165 13.4085 23.2421 13.5888 23.2517 13.736C23.2563 13.8074 23.2568 13.8657 23.2563 13.9039C23.256 13.9229 23.2555 13.9366 23.2552 13.9439L23.2549 13.9494L23.2549 13.9494L23.2532 13.9729V14V24C23.2532 24.4142 23.589 24.75 24.0032 24.75C24.4174 24.75 24.7532 24.4142 24.7532 24V14.0202L24.7537 14.0111C24.7547 13.9892 24.7557 13.9599 24.7562 13.9242C24.7571 13.853 24.7561 13.7551 24.7485 13.639C24.7338 13.4112 24.6928 13.0915 24.5802 12.7593C24.4681 12.4283 24.2715 12.0462 23.9208 11.7442C23.5566 11.4305 23.0798 11.25 22.5032 11.25Z" fill="#6E7491"/>
</svg>
