<svg width="32" height="32" viewBox="0 0 32 32" fill="none" xmlns="http://www.w3.org/2000/svg">
<path fill-rule="evenodd" clip-rule="evenodd" d="M13 9C13 10.1046 12.1046 11 11 11C9.89543 11 9 10.1046 9 9C9 7.89543 9.89543 7 11 7C12.1046 7 13 7.89543 13 9ZM9.1405 13.124C9.0659 12.5272 9.53128 12 10.1328 12H12.2344C12.2713 12 12.308 12.001 12.3444 12.003C12.3675 12.003 12.3908 12.0038 12.4142 12.0055L18.4231 12.428C18.974 12.4668 19.3892 12.9448 19.3505 13.4957C19.3117 14.0466 18.8337 14.4618 18.2828 14.4231L14.2676 14.1408L14.625 17H16.5585C17.4193 17 18.1836 17.5509 18.4558 18.3675L19 20L20.1967 23.9891C20.3479 24.4929 19.9706 25 19.4446 25C19.1688 25 18.9132 24.8553 18.7713 24.6188L16 20H15H12H11.7656C10.7569 20 9.90612 19.2489 9.78101 18.2481L9.1405 13.124ZM9 21C8.44772 21 8 21.4477 8 22C8 22.5523 8.44772 23 9 23H14.5C15.0523 23 15.5 22.5523 15.5 22C15.5 21.4477 15.0523 21 14.5 21H9ZM20 8.75C19.5858 8.75 19.25 9.08579 19.25 9.5C19.25 9.91421 19.5858 10.25 20 10.25H20.25V15.75C20.25 16.0922 20.4791 16.3808 20.7923 16.4709L21.2514 24.0454C21.2751 24.4368 21.5964 24.7439 21.9886 24.7499C22.3807 24.7559 22.7113 24.4587 22.7469 24.0682L23.4396 16.4765C23.7634 16.3935 24.0028 16.0997 24.0028 15.75V10.25H24.2528C24.667 10.25 25.0028 9.91421 25.0028 9.5C25.0028 9.08579 24.667 8.75 24.2528 8.75H23.2528H21H20ZM21.75 15V10.25H22.5028V15H21.75Z" fill="#6E7491"/>
</svg>
