<svg width="32" height="32" viewBox="0 0 32 32" fill="none" xmlns="http://www.w3.org/2000/svg">
<path fill-rule="evenodd" clip-rule="evenodd" d="M11 11C12.1046 11 13 10.1046 13 9C13 7.89543 12.1046 7 11 7C9.89543 7 9 7.89543 9 9C9 10.1046 9.89543 11 11 11ZM10.1328 12C9.53128 12 9.0659 12.5272 9.1405 13.124L9.78101 18.2481C9.90612 19.2489 10.7569 20 11.7656 20H12H15H16L18.7713 24.6188C18.9132 24.8553 19.1688 25 19.4446 25C19.9706 25 20.3479 24.4929 20.1967 23.9891L19 20L18.4558 18.3675C18.2119 17.6357 17.5727 17.1172 16.823 17.0175C16.9376 16.6998 17 16.3572 17 16C17 14.3431 15.6569 13 14 13C13.989 13 13.9779 13.0001 13.9669 13.0002C13.619 12.3978 12.9685 12 12.2344 12H10.1328ZM8 22C8 21.4477 8.44772 21 9 21H14.5C15.0523 21 15.5 21.4477 15.5 22C15.5 22.5523 15.0523 23 14.5 23H9C8.44772 23 8 22.5523 8 22Z" fill="#6E7491"/>
</svg>
