<svg width="32" height="32" viewBox="0 0 32 32" fill="none" xmlns="http://www.w3.org/2000/svg">
<path fill-rule="evenodd" clip-rule="evenodd" d="M17 12C18.1046 12 19 11.1046 19 10C19 8.89543 18.1046 8 17 8C15.8954 8 15 8.89543 15 10C15 11.1046 15.8954 12 17 12ZM14.7178 13.0407C14.9559 13.0018 15.2301 12.9775 15.5062 13H17.495H17.505H17.6562C17.7806 13 17.8971 13.0459 17.9847 13.125C18.0644 13.1693 18.1394 13.2252 18.2071 13.2929C18.5184 13.6043 19.142 14.0535 19.8006 14.4343C20.1218 14.6201 20.4249 14.7742 20.6724 14.8784C20.8572 14.9562 20.9606 14.9842 20.9978 14.9943C21.0087 14.9973 21.014 14.9987 21.0139 14.9994C21.0138 15 21.0092 15 21.0005 15H21C21.5523 15 22 15.4477 22 16C22 16.5523 21.5523 17 21 17C20.6148 17 20.2001 16.8496 19.8963 16.7216C19.55 16.5758 19.1698 16.3799 18.7993 16.1657C18.6699 16.0908 18.5383 16.0118 18.4067 15.9297C18.3165 16.3338 18.1717 16.7447 18.0084 17.129C18.6948 17.302 19.4378 17.6665 20.0392 18.3265C20.9944 19.375 21.4239 20.9794 20.9806 23.1961C20.8722 23.7377 20.3454 24.0889 19.8039 23.9806C19.2623 23.8723 18.9111 23.3455 19.0194 22.8039C19.376 21.0206 18.9722 20.125 18.5608 19.6735C18.1121 19.1811 17.4603 19 17 19C16.947 19 16.895 18.9959 16.8442 18.988C16.8089 18.9959 16.7723 19 16.7352 19H16.027C15.5911 20.4973 14.2177 22.5092 11.4472 23.8944C10.9532 24.1414 10.3525 23.9412 10.1055 23.4472C9.85856 22.9532 10.0588 22.3526 10.5528 22.1056C12.9078 20.9281 13.8197 19.3506 14.0902 18.4918C14.0906 18.4674 14.0929 18.4427 14.097 18.4178L14.6485 15.1087C14.5047 15.1531 14.3523 15.2103 14.1976 15.2805C13.5521 15.5732 13.0674 15.9954 12.8867 16.4042C12.6634 16.9094 12.0729 17.1379 11.5678 16.9147C11.0626 16.6914 10.8341 16.1009 11.0574 15.5958C11.5195 14.5502 12.5088 13.8503 13.3716 13.459C13.8197 13.2558 14.2855 13.1113 14.7178 13.0407Z" fill="#6E7491"/>
</svg>
