<svg width="32" height="32" viewBox="0 0 32 32" fill="none" xmlns="http://www.w3.org/2000/svg">
<path fill-rule="evenodd" clip-rule="evenodd" d="M20 13C20 15.2091 18.2091 17 16 17C13.7909 17 12 15.2091 12 13C12 10.7909 13.7909 9 16 9C18.2091 9 20 10.7909 20 13ZM17.4345 18.8274C20.0555 18.1844 22 15.8193 22 13C22 9.68629 19.3137 7 16 7C12.6863 7 10 9.68629 10 13C10 15.8193 11.9445 18.1844 14.5655 18.8274L15.0035 24.083C15.0466 24.6013 15.4799 25 16 25C16.5201 25 16.9534 24.6013 16.9965 24.083L17.4345 18.8274Z" fill="#6E7491"/>
</svg>
