<svg width="32" height="32" viewBox="0 0 32 32" fill="none" xmlns="http://www.w3.org/2000/svg">
<path d="M12.4735 15.1673C12.4803 15.1849 12.4872 15.2024 12.494 15.22H12.14V15.2199L12.136 15.2201L11.1357 15.2606C10.814 15.2737 10.56 15.5382 10.56 15.8601V16.06C10.56 16.3914 10.8286 16.66 11.16 16.66H13.0263C13.1501 17.0701 13.22 17.4956 13.22 17.92C13.22 19.4524 12.3994 20.7626 10.8704 21.6669C10.6834 21.7775 10.56 21.9774 10.56 22.1996V22.5C10.56 22.8314 10.8286 23.1 11.16 23.1H21.08C21.4114 23.1 21.68 22.8314 21.68 22.5V21.94C21.68 21.6086 21.4114 21.34 21.08 21.34H13.5389C13.9921 20.8702 14.369 20.4161 14.6364 19.8957C14.9218 19.3404 15.08 18.7145 15.08 17.92C15.08 17.474 15.0125 17.0632 14.9247 16.66H19.2C19.5314 16.66 19.8 16.3914 19.8 16.06V15.82C19.8 15.4886 19.5314 15.22 19.2 15.22H14.4494C14.4349 15.1811 14.4204 15.1423 14.4059 15.1035C14.1065 14.3035 13.82 13.5378 13.82 12.74C13.82 11.9266 14.1241 11.2353 14.6951 10.7459C15.2675 10.2553 16.1172 9.96 17.22 9.96C18.4402 9.96 19.3521 10.3144 20.0757 11.0176C20.3226 11.2575 20.7306 11.2908 20.9857 11.0357L21.3143 10.7072C21.5288 10.4926 21.555 10.142 21.3391 9.91368C20.3666 8.8855 18.9851 8.24 17.1 8.24C15.5229 8.24 14.2081 8.66463 13.2857 9.43838C12.3615 10.2137 11.84 11.3326 11.84 12.7C11.84 13.5379 12.1581 14.356 12.4735 15.1673Z" fill="#6E7491" stroke="#6E7491" stroke-width="0.2"/>
</svg>
