<svg width="32" height="32" viewBox="0 0 32 32" fill="none" xmlns="http://www.w3.org/2000/svg">
<path fill-rule="evenodd" clip-rule="evenodd" d="M20 14C20 17.3137 17.3137 20 14 20C10.6863 20 8 17.3137 8 14C8 10.6863 10.6863 8 14 8C17.3137 8 20 10.6863 20 14ZM18.3202 20.7344C17.0741 21.5354 15.5913 22 14 22C9.58172 22 6 18.4183 6 14C6 9.58172 9.58172 6 14 6C18.4183 6 22 9.58172 22 14C22 16.1038 21.1879 18.0179 19.8602 19.446L23.7071 23.2929C24.0976 23.6834 24.0976 24.3166 23.7071 24.7071C23.3166 25.0976 22.6834 25.0976 22.2929 24.7071L18.3202 20.7344Z" fill="#6E7491"/>
</svg>
