<svg width="32" height="32" viewBox="0 0 32 32" fill="none" xmlns="http://www.w3.org/2000/svg">
<path fill-rule="evenodd" clip-rule="evenodd" d="M15.3503 9.22747C13.2197 7.24162 9.80517 9.21299 10.4597 12.0511C10.5721 12.5386 10.2884 13.03 9.80997 13.1764C7.02486 14.0286 7.02486 17.9714 9.80997 18.8236C10.2884 18.97 10.5721 19.4615 10.4597 19.9489C9.80517 22.787 13.2197 24.7584 15.3503 22.7726C15.7163 22.4315 16.2837 22.4315 16.6497 22.7726C18.7803 24.7584 22.1949 22.787 21.5404 19.9489C21.428 19.4615 21.7117 18.97 22.1901 18.8236C24.9752 17.9714 24.9752 14.0286 22.1901 13.1764C21.7117 13.03 21.428 12.5386 21.5404 12.0511C22.1949 9.21299 18.7803 7.24162 16.6497 9.22747C16.2837 9.56857 15.7163 9.56857 15.3503 9.22747ZM12.4085 11.6017C12.1973 10.6858 13.2992 10.0497 13.9867 10.6905C15.1208 11.7476 16.8792 11.7476 18.0133 10.6905C18.7009 10.0497 19.8027 10.6858 19.5915 11.6017C19.2431 13.1124 20.1224 14.6352 21.6048 15.0889C22.5036 15.3639 22.5036 16.6362 21.6048 16.9112C20.1224 17.3648 19.2431 18.8877 19.5915 20.3984C19.8027 21.3142 18.7009 21.9503 18.0133 21.3095C16.8792 20.2525 15.1208 20.2525 13.9867 21.3095C13.2992 21.9503 12.1973 21.3142 12.4085 20.3984C12.7569 18.8877 11.8777 17.3648 10.3952 16.9112C9.49645 16.6362 9.49645 15.3639 10.3952 15.0889C11.8777 14.6352 12.7569 13.1124 12.4085 11.6017ZM16.866 15.5C17.1422 15.9783 16.9783 16.5899 16.5 16.866C16.0217 17.1422 15.4101 16.9783 15.134 16.5C14.8578 16.0217 15.0217 15.4101 15.5 15.134C15.9783 14.8579 16.5899 15.0217 16.866 15.5ZM18.5981 14.5C19.4265 15.9349 18.9349 17.7697 17.5 18.5981C16.0651 19.4265 14.2304 18.9349 13.4019 17.5C12.5735 16.0651 13.0651 14.2304 14.5 13.4019C15.9349 12.5735 17.7697 13.0651 18.5981 14.5Z" fill="#6E7491"/>
</svg>
