<svg width="32" height="32" viewBox="0 0 32 32" fill="none" xmlns="http://www.w3.org/2000/svg">
<path fill-rule="evenodd" clip-rule="evenodd" d="M7 9C6.44772 9 6 9.44772 6 10C6 10.5523 6.44772 11 7 11H9.21014L11.3766 20.0991C10.5773 20.361 10 21.1131 10 22C10 23.1046 10.8954 24 12 24C13.1046 24 14 23.1046 14 22C14 21.8274 13.9781 21.6598 13.937 21.5H21.063C21.0219 21.6598 21 21.8274 21 22C21 23.1046 21.8954 24 23 24C24.1046 24 25 23.1046 25 22C25 21.2468 24.5836 20.5908 23.9684 20.2497C23.8573 19.8185 23.4658 19.5 23 19.5H13.2899L10.9728 9.76838C10.8656 9.31791 10.4631 9 10 9H7ZM14.273 11C13.6248 11 13.1479 11.6071 13.3014 12.2368L14.5199 17.2368C14.6291 17.6847 15.0304 18 15.4915 18H22.5085C22.9696 18 23.3709 17.6847 23.4801 17.2368L24.6986 12.2368C24.8521 11.6071 24.3752 11 23.727 11H14.273Z" fill="#6E7491"/>
</svg>
