<svg width="32" height="32" viewBox="0 0 32 32" fill="none" xmlns="http://www.w3.org/2000/svg">
<path fill-rule="evenodd" clip-rule="evenodd" d="M8 10C8 8.34315 9.34315 7 11 7H21C22.6569 7 24 8.34315 24 10V18C24 19.7824 22.8342 21.2924 21.2236 21.8094L22.7071 23.2929C23.0976 23.6834 23.0976 24.3166 22.7071 24.7071C22.3166 25.0976 21.6834 25.0976 21.2929 24.7071L18.5858 22H13.4142L10.7071 24.7071C10.3166 25.0976 9.68342 25.0976 9.29289 24.7071C8.90237 24.3166 8.90237 23.6834 9.29289 23.2929L10.7764 21.8094C9.16576 21.2924 8 19.7824 8 18V10ZM11 9C10.4477 9 10 9.44772 10 10V14C10 14.5523 10.4477 15 11 15H15V9H11ZM13 18.5C13 19.3284 12.3284 20 11.5 20C10.6716 20 10 19.3284 10 18.5C10 17.6716 10.6716 17 11.5 17C12.3284 17 13 17.6716 13 18.5ZM22 18.5C22 19.3284 21.3284 20 20.5 20C19.6716 20 19 19.3284 19 18.5C19 17.6716 19.6716 17 20.5 17C21.3284 17 22 17.6716 22 18.5ZM17 9H21C21.5523 9 22 9.44772 22 10V14C22 14.5523 21.5523 15 21 15H17V9Z" fill="#6E7491"/>
</svg>
