<svg width="32" height="32" viewBox="0 0 32 32" fill="none" xmlns="http://www.w3.org/2000/svg">
<path fill-rule="evenodd" clip-rule="evenodd" d="M9 11.4963V11H16.5V11.875C16.5 12.4273 16.9477 12.875 17.5 12.875C18.0523 12.875 18.5 12.4273 18.5 11.875V11H23V11.4963C22.2635 11.9163 21.7544 12.5629 21.4489 13.2825C21.0644 14.1881 21 15.197 21 16C21 16.803 21.0644 17.8119 21.4489 18.7175C21.7544 19.4371 22.2635 20.0837 23 20.5037V21H18.5V20.625C18.5 20.0727 18.0523 19.625 17.5 19.625C16.9477 19.625 16.5 20.0727 16.5 20.625V21H9V20.5037C9.73653 20.0837 10.2456 19.4371 10.5511 18.7175C10.9356 17.8119 11 16.803 11 16C11 15.197 10.9356 14.1881 10.5511 13.2825C10.2456 12.5629 9.73653 11.9163 9 11.4963ZM7.5 9C7.22386 9 7 9.22386 7 9.5V12.5C7 12.7761 7.22713 12.9917 7.49771 13.0468C8.7278 13.2975 9 14.5243 9 16C9 17.4757 8.7278 18.7025 7.49771 18.9532C7.22713 19.0083 7 19.2239 7 19.5V22.5C7 22.7761 7.22386 23 7.5 23H24.5C24.7761 23 25 22.7761 25 22.5V19.5C25 19.2239 24.7729 19.0083 24.5023 18.9532C23.2722 18.7025 23 17.4757 23 16C23 14.5243 23.2722 13.2975 24.5023 13.0468C24.7729 12.9917 25 12.7761 25 12.5V9.5C25 9.22386 24.7761 9 24.5 9H7.5ZM18.5 15.375C18.5 14.8227 18.0523 14.375 17.5 14.375C16.9477 14.375 16.5 14.8227 16.5 15.375V17.125C16.5 17.6773 16.9477 18.125 17.5 18.125C18.0523 18.125 18.5 17.6773 18.5 17.125V15.375Z" fill="#6E7491"/>
</svg>
