<svg width="32" height="32" viewBox="0 0 32 32" fill="none" xmlns="http://www.w3.org/2000/svg">
<path fill-rule="evenodd" clip-rule="evenodd" d="M8 10C8 8.34315 9.34315 7 11 7H21C22.6569 7 24 8.34315 24 10V20C24 21.1046 23.1046 22 22 22H21.4142L22.7071 23.2929C23.0976 23.6834 23.0976 24.3166 22.7071 24.7071C22.3166 25.0976 21.6834 25.0976 21.2929 24.7071L18.5858 22H13.4142L10.7071 24.7071C10.3166 25.0976 9.68342 25.0976 9.29289 24.7071C8.90237 24.3166 8.90237 23.6834 9.29289 23.2929L10.5858 22H10C8.89543 22 8 21.1046 8 20V10ZM10 10C10 9.44772 10.4477 9 11 9H21C21.5523 9 22 9.44772 22 10V14C22 14.5523 21.5523 15 21 15H11C10.4477 15 10 14.5523 10 14V10ZM17.5 18.5C17.5 19.3284 16.8284 20 16 20C15.1716 20 14.5 19.3284 14.5 18.5C14.5 17.6716 15.1716 17 16 17C16.8284 17 17.5 17.6716 17.5 18.5Z" fill="#6E7491"/>
</svg>
