<svg width="32" height="32" viewBox="0 0 32 32" fill="none" xmlns="http://www.w3.org/2000/svg">
<path fill-rule="evenodd" clip-rule="evenodd" d="M13.0676 14.4699C14.0297 13.4276 14.7914 12.1715 15.366 10.6615H10.6756C11.2502 12.1047 12.0386 13.3875 13.0676 14.4699ZM19.1611 10.1047C19.1611 10.4122 18.9118 10.6615 18.6043 10.6615H17.2369C16.5153 12.6392 15.5398 14.2561 14.3104 15.5924C14.8842 16.2605 15.7747 16.8758 16.7815 17.1975C17.1368 17.3111 17.3439 17.7104 17.1825 18.0467C17.0441 18.335 16.9573 18.5201 16.8283 18.7954C16.8132 18.8276 16.7975 18.8611 16.7811 18.8961C16.6506 19.1746 16.3172 19.2953 16.0442 19.1536C15.0015 18.6125 14.4727 18.1506 13.6745 17.4536C13.4644 17.2701 13.2357 17.0703 12.9741 16.8486C11.6312 17.9204 10.0611 18.7424 8.23244 19.3668C7.96549 19.458 7.67305 19.3282 7.52922 19.0855C7.45081 18.9532 7.36286 18.8135 7.27202 18.6759C7.04794 18.3366 7.20972 17.8516 7.5978 17.7301C9.21373 17.2243 10.6033 16.5396 11.758 15.6592C10.5553 14.2829 9.63329 12.6125 8.91169 10.6615H7.55757C7.25006 10.6615 7.00078 10.4122 7.00078 10.1047V9.66815C7.00078 9.36064 7.25006 9.11136 7.55757 9.11136H12.2391V7.55679C12.2391 7.24928 12.4884 7 12.7959 7H13.2992C13.6067 7 13.856 7.24928 13.856 7.55679V9.11136H18.6043C18.9118 9.11136 19.1611 9.36064 19.1611 9.66815V10.1047ZM19.1325 23.0425H22.5646L23.096 24.6209C23.1722 24.8474 23.3846 25 23.6237 25H24.5021C24.8907 25 25.1598 24.612 25.0236 24.248L21.8843 15.8613C21.8029 15.6438 21.5951 15.4997 21.3629 15.4997H20.3219C20.0893 15.4997 19.8812 15.6443 19.8001 15.8623L16.6781 24.249C16.5427 24.6128 16.8118 25 17.1999 25H18.0787C18.3184 25 18.5311 24.8466 18.6069 24.6193L19.1325 23.0425ZM22.0361 21.457H19.661L20.842 17.9009L22.0361 21.457Z" fill="#6E7491"/>
</svg>
