<svg width="32" height="32" viewBox="0 0 32 32" fill="none" xmlns="http://www.w3.org/2000/svg">
<path fill-rule="evenodd" clip-rule="evenodd" d="M16 7C16.3693 7 16.7086 7.20355 16.8824 7.52941L24.8824 22.5294C25.0477 22.8393 25.0382 23.2133 24.8575 23.5145C24.6768 23.8157 24.3513 24 24 24H8C7.64874 24 7.32323 23.8157 7.14251 23.5145C6.96178 23.2133 6.95235 22.8393 7.11765 22.5294L15.1176 7.52941C15.2914 7.20355 15.6307 7 16 7ZM22.3333 22L16 10.125L9.66667 22H22.3333ZM16 13.5625C16.5523 13.5625 17 14.0102 17 14.5625V16.9062C17 17.4585 16.5523 17.9062 16 17.9062C15.4477 17.9062 15 17.4585 15 16.9062V14.5625C15 14.0102 15.4477 13.5625 16 13.5625ZM16 20.5C16.5523 20.5 17 20.0523 17 19.5C17 18.9477 16.5523 18.5 16 18.5C15.4477 18.5 15 18.9477 15 19.5C15 20.0523 15.4477 20.5 16 20.5Z" fill="#6E7491"/>
</svg>
