<svg width="32" height="32" viewBox="0 0 32 32" fill="none" xmlns="http://www.w3.org/2000/svg">
<path fill-rule="evenodd" clip-rule="evenodd" d="M11.1004 17.5053C11.0343 17.0143 11 16.5116 11 16C11 15.4822 11.0351 14.9735 11.1028 14.4767H9.16621C9.05739 14.9671 9 15.4769 9 16C9 16.5168 9.05599 17.0204 9.16225 17.5053H11.1004ZM11.5633 19.5053H9.93953C10.651 20.7327 11.7246 21.724 13.0141 22.3331C12.4015 21.4925 11.9083 20.5391 11.5633 19.5053ZM13.7425 19.5053L18.2575 19.5053C17.732 20.6714 16.9525 21.6704 16 22.4118C15.0475 21.6704 14.268 20.6714 13.7425 19.5053ZM18.8702 17.5053L13.1298 17.5053C13.0446 17.0182 13 16.5149 13 16C13 15.4787 13.0457 14.9694 13.133 14.4767L18.867 14.4767C18.9543 14.9694 19 15.4787 19 16C19 16.5149 18.9554 17.0182 18.8702 17.5053ZM20.4367 19.5053C20.0917 20.5391 19.5985 21.4924 18.9859 22.3331C20.2754 21.724 21.349 20.7327 22.0605 19.5053H20.4367ZM22.8378 17.5053H20.8996C20.9657 17.0143 21 16.5116 21 16C21 15.4822 20.9649 14.9735 20.8972 14.4767H22.8338C22.9426 14.9671 23 15.4769 23 16C23 16.5168 22.944 17.0204 22.8378 17.5053ZM16 9.58821C15.0524 10.3258 14.2761 11.3184 13.7507 12.4767L18.2493 12.4767C17.7239 11.3184 16.9476 10.3258 16 9.58821ZM20.4307 12.4767H22.05C21.3385 11.2576 20.2691 10.273 18.9859 9.66693C19.5949 10.5027 20.086 11.4498 20.4307 12.4767ZM9.95 12.4767H11.5693C11.914 11.4498 12.4051 10.5027 13.0141 9.66693C11.7309 10.273 10.6615 11.2576 9.95 12.4767ZM16 7C20.9706 7 25 11.0294 25 16C25 20.9706 20.9706 25 16 25C11.0294 25 7 20.9706 7 16C7 11.0294 11.0294 7 16 7Z" fill="#6E7491"/>
</svg>
