<svg width="32" height="32" viewBox="0 0 32 32" fill="none" xmlns="http://www.w3.org/2000/svg">
<path d="M12.7739 8.7519C12.6937 8.57112 12.5145 8.45456 12.3168 8.45456H11.0825C10.7134 8.45456 10.4715 8.84077 10.6326 9.17284L13.7855 15.6705H11.7997C11.5236 15.6705 11.2997 15.8943 11.2997 16.1705V16.6051C11.2997 16.8813 11.5236 17.1051 11.7997 17.1051H14.4531V18.483H11.7997C11.5236 18.483 11.2997 18.7068 11.2997 18.983V19.4176C11.2997 19.6938 11.5236 19.9176 11.7997 19.9176H14.4531V22.5C14.4531 22.7762 14.677 23 14.9531 23H16.1406C16.4168 23 16.6406 22.7762 16.6406 22.5V19.9176H19.223C19.4992 19.9176 19.723 19.6938 19.723 19.4176V18.983C19.723 18.7068 19.4992 18.483 19.223 18.483H16.6406V17.1051H19.223C19.4992 17.1051 19.723 16.8813 19.723 16.6051V16.1705C19.723 15.8943 19.4992 15.6705 19.223 15.6705H17.3366L20.4895 9.17284C20.6507 8.84077 20.4088 8.45456 20.0397 8.45456H18.8054C18.6076 8.45456 18.4284 8.57112 18.3483 8.7519L15.5611 15.0384L12.7739 8.7519Z" fill="#6E7491"/>
</svg>
