<svg width="40" height="40" viewBox="0 0 40 40" fill="none" xmlns="http://www.w3.org/2000/svg">
<g filter="url(#filter0_i_743_15)">
<path d="M32.5 9H21.5C13.5 22.6 8.5 25.5 7 25.5V26H18C19.5 26 21 25.3636 22 24C30 13.0909 32.5 9 32.5 9Z" fill="#E70111"/>
</g>
<g filter="url(#filter1_i_743_15)">
<path d="M35.5 29H33.8824C32.7059 31 31.9706 31.4265 31.75 31.4265V31.5H33.3676C33.5882 31.5 33.8088 31.4064 33.9559 31.2059C35.1324 29.6016 35.5 29 35.5 29Z" fill="#E70111"/>
</g>
<path d="M6.43027 30.9406H5.00199L4.72952 31.4586H4L5.37115 29.0414H6.0743L7.44984 31.4586H6.70274L6.43027 30.9406ZM6.20614 30.5159L5.71833 29.5905L5.23052 30.5159H6.20614Z" fill="#02234F"/>
<path d="M7.769 29.0414H8.48094V31.4586H7.769V29.0414Z" fill="#02234F"/>
<path d="M11.1711 31.4586L10.5778 30.7852H9.92296V31.4586H9.21101V29.0414H10.5426C10.8151 29.0414 11.0509 29.0771 11.2502 29.1485C11.4523 29.2198 11.6076 29.3211 11.716 29.4523C11.8244 29.5836 11.8786 29.739 11.8786 29.9185C11.8786 30.0981 11.8229 30.2535 11.7116 30.3847C11.6032 30.5136 11.4479 30.6126 11.2458 30.6816L11.9357 31.4586H11.1711ZM11.1579 29.9185C11.1579 29.7827 11.1022 29.6791 10.9909 29.6077C10.8795 29.5341 10.7169 29.4972 10.5031 29.4972H9.92296V30.3398H10.5031C10.7169 30.3398 10.8795 30.3029 10.9909 30.2293C11.1022 30.1556 11.1579 30.052 11.1579 29.9185Z" fill="#02234F"/>
<path d="M13.1546 29.4903V30.1291H14.5785V30.578H13.1546V31.4586H12.4427V29.0414H14.7675V29.4903H13.1546Z" fill="#02234F"/>
<path d="M17.2095 31.4586L16.6162 30.7852H15.9614V31.4586H15.2494V29.0414H16.581C16.8535 29.0414 17.0893 29.0771 17.2886 29.1485C17.4907 29.2198 17.646 29.3211 17.7544 29.4523C17.8628 29.5836 17.917 29.739 17.917 29.9185C17.917 30.0981 17.8614 30.2535 17.75 30.3847C17.6416 30.5136 17.4863 30.6126 17.2842 30.6816L17.9741 31.4586H17.2095ZM17.1963 29.9185C17.1963 29.7827 17.1406 29.6791 17.0293 29.6077C16.918 29.5341 16.7554 29.4972 16.5415 29.4972H15.9614V30.3398H16.5415C16.7554 30.3398 16.918 30.3029 17.0293 30.2293C17.1406 30.1556 17.1963 30.052 17.1963 29.9185Z" fill="#02234F"/>
<path d="M20.507 30.9406H19.0788L18.8063 31.4586H18.0768L19.4479 29.0414H20.1511L21.5266 31.4586H20.7795L20.507 30.9406ZM20.2829 30.5159L19.7951 29.5905L19.3073 30.5159H20.2829Z" fill="#02234F"/>
<path d="M24.6672 29.0414V31.4586H24.0827L22.5489 29.991V31.4586H21.8458V29.0414H22.4347L23.964 30.509V29.0414H24.6672Z" fill="#02234F"/>
<path d="M26.8672 31.5C26.5537 31.5 26.2696 31.4471 26.0147 31.3412C25.7627 31.233 25.5635 31.0845 25.417 30.8957C25.2734 30.7047 25.2016 30.4894 25.2016 30.25C25.2016 30.0106 25.2734 29.7965 25.417 29.6077C25.5635 29.4167 25.7627 29.2682 26.0147 29.1623C26.2696 29.0541 26.5552 29 26.8716 29C27.1382 29 27.3785 29.0368 27.5924 29.1105C27.8092 29.1842 27.9908 29.2901 28.1373 29.4282L27.6803 29.7597C27.4722 29.5709 27.2144 29.4765 26.9068 29.4765C26.7163 29.4765 26.5464 29.5099 26.397 29.5767C26.2476 29.6411 26.1304 29.732 26.0454 29.8494C25.9634 29.9669 25.9224 30.1004 25.9224 30.25C25.9224 30.3996 25.9634 30.5331 26.0454 30.6506C26.1304 30.768 26.2476 30.86 26.397 30.9268C26.5464 30.9913 26.7163 31.0235 26.9068 31.0235C27.2144 31.0235 27.4722 30.9279 27.6803 30.7369L28.1373 31.0684C27.9908 31.2088 27.8092 31.3158 27.5924 31.3895C27.3756 31.4632 27.1338 31.5 26.8672 31.5Z" fill="#02234F"/>
<path d="M31 31.0097V31.4586H28.6181V29.0414H30.9429V29.4903H29.3256V30.0152H30.7539V30.4503H29.3256V31.0097H31Z" fill="#02234F"/>
<defs>
<filter id="filter0_i_743_15" x="7" y="8" width="25.5" height="18" filterUnits="userSpaceOnUse" color-interpolation-filters="sRGB">
<feFlood flood-opacity="0" result="BackgroundImageFix"/>
<feBlend mode="normal" in="SourceGraphic" in2="BackgroundImageFix" result="shape"/>
<feColorMatrix in="SourceAlpha" type="matrix" values="0 0 0 0 0 0 0 0 0 0 0 0 0 0 0 0 0 0 127 0" result="hardAlpha"/>
<feOffset dy="-1"/>
<feGaussianBlur stdDeviation="2"/>
<feComposite in2="hardAlpha" operator="arithmetic" k2="-1" k3="1"/>
<feColorMatrix type="matrix" values="0 0 0 0 0.805739 0 0 0 0 0.0142609 0 0 0 0 0.0677393 0 0 0 1 0"/>
<feBlend mode="normal" in2="shape" result="effect1_innerShadow_743_15"/>
</filter>
<filter id="filter1_i_743_15" x="31.75" y="28.8235" width="3.75" height="2.67647" filterUnits="userSpaceOnUse" color-interpolation-filters="sRGB">
<feFlood flood-opacity="0" result="BackgroundImageFix"/>
<feBlend mode="normal" in="SourceGraphic" in2="BackgroundImageFix" result="shape"/>
<feColorMatrix in="SourceAlpha" type="matrix" values="0 0 0 0 0 0 0 0 0 0 0 0 0 0 0 0 0 0 127 0" result="hardAlpha"/>
<feOffset dy="-0.176469"/>
<feGaussianBlur stdDeviation="0.352937"/>
<feComposite in2="hardAlpha" operator="arithmetic" k2="-1" k3="1"/>
<feColorMatrix type="matrix" values="0 0 0 0 0.805739 0 0 0 0 0.0142609 0 0 0 0 0.0677393 0 0 0 1 0"/>
<feBlend mode="normal" in2="shape" result="effect1_innerShadow_743_15"/>
</filter>
</defs>
</svg>
