<svg width="40" height="40" viewBox="0 0 40 40" fill="none" xmlns="http://www.w3.org/2000/svg">
<path d="M9.40979 13.4679H12.1217C12.1217 12.9845 12.5352 12.0465 13.5936 12.0465C14.0068 12.0465 14.0774 12.1376 14.6114 12.0267C15.3071 11.7951 15.6196 11.3914 15.7609 11.069C15.7609 11.069 16.0332 12.2181 14.944 12.8231C14.3292 13.1557 13.3821 12.8941 13.3821 12.8941C13.3821 12.8941 12.6161 12.7828 12.5151 13.4679C12.9484 13.4679 13.624 13.9016 13.624 14.6478V20.9583C13.624 21.4117 13.9867 21.8857 14.5407 21.8857C15.0356 21.8857 15.4594 21.4926 15.4594 20.9583V16.5326C15.4594 9.99993 20.5398 7.2892 23.4928 7.06704C25.9427 6.88513 27.5962 7.10691 30.5902 5C30.5902 5 29.6526 8.66963 25.4091 9.54688C24.6321 9.7079 22.2932 9.43599 20.0959 11.7244C18.3516 13.5389 18.1709 15.2125 18.1709 17.4201V21.3214C18.1709 23.025 16.7999 24.7487 14.7025 24.7487C12.6769 24.7487 11.255 23.1359 11.255 21.3214V14.6983C11.255 14.1538 10.8616 13.6601 10.2365 13.6601H9.40979V13.4679Z" fill="#E30F18"/>
<path d="M11.7895 24.3259C11.7895 24.3259 14.0167 26.5839 16.9508 24.8799C18.8963 23.7509 18.9567 21.4017 18.9567 21.4017V16.15C18.9567 16.15 18.8758 13.5186 21.2447 11.6331C22.8986 10.3332 24.4305 10.4236 25.4889 10.2926C28.2012 9.95953 29.4107 8.24681 29.4107 8.24681C29.4407 8.53884 29.1487 11.6836 25.7514 12.581C25.0552 12.7633 21.3256 12.3999 21.3256 16.7147V21.9155C21.3256 23.0043 21.0636 24.9301 19.0273 26.2915C16.9307 27.6826 13.5329 27.4604 11.7895 24.3259Z" fill="#E30F18"/>
<path d="M14.9239 27.6016C18.2411 28.5294 22.0414 26.2007 22.0414 22.3396V17.7832C22.0414 16.4522 23.1499 14.6984 25.1467 14.6984C27.2438 14.6984 28.241 16.5828 28.241 17.7832C28.241 18.5488 27.938 20.0816 26.4975 20.0816C25.3476 20.0816 24.612 18.9115 24.9751 17.9541C24.8946 18.2769 25.0654 18.5895 25.4087 18.5895C25.741 18.5895 25.9229 18.2769 25.8622 17.8839C25.8622 17.8034 25.7615 17.0773 24.9546 17.0773C24.279 17.0773 24.0576 17.6925 24.0576 17.9948V22.0476C24.0576 26.3822 19.3394 29.5874 14.9239 27.6016Z" fill="#E30F18"/>
<path d="M11.6829 31.5684H10.5507L9.58435 35.9027H10.7091L11.6829 31.5684Z" fill="#1D1D1B"/>
<path d="M26.6263 31.5684H25.4941L24.528 35.9027H25.6532L26.6263 31.5684Z" fill="#1D1D1B"/>
<path d="M20.228 33.2867H19.1029L19.324 32.3002C19.324 32.3002 19.3857 32.1277 19.1791 32.1277H18.6196C18.6196 32.1277 18.4953 32.1207 18.4606 32.2379L17.8324 35.0815C17.8324 35.0815 17.7911 35.2683 18.0054 35.2683H18.4953C18.4953 35.2683 18.6196 35.337 18.6815 35.1164L18.8547 34.3777H20.0141L19.7793 35.351C19.7793 35.351 19.6069 35.8478 19.0061 35.8478H17.2254C17.2254 35.8478 16.7978 35.8206 16.7978 35.2127L17.488 32.1415C17.488 32.1415 17.6329 31.5343 18.1158 31.5343H20.0273C20.0273 31.5343 20.559 31.5343 20.4143 32.3138C20.2622 33.094 20.228 33.2867 20.228 33.2867Z" fill="#1D1D1B"/>
<path d="M23.4578 31.5684L23.0646 33.3289H22.2296L22.6227 31.5684H21.498L20.5317 35.9027H21.6496L22.1051 33.8806H22.9402L22.4847 35.9027H23.6167L24.5834 31.5684H23.4578Z" fill="#1D1D1B"/>
<path d="M29.449 31.5684L28.945 33.9912L28.5518 31.5684H27.503L26.5986 35.9027H27.6476L28.124 33.6253L28.545 35.9027H29.594L30.4982 31.5684H29.449Z" fill="#1D1D1B"/>
<path fill-rule="evenodd" clip-rule="evenodd" d="M7.79704 33.943H7.95597L7.79704 34.5706L7.47282 35.8963H7.79704H8.64612L9.62602 31.5618H7.79704H7.24452C6.64415 31.5618 6.46481 32.2379 6.46481 32.2379L5.57446 35.8892L6.67181 35.8963L7.15496 33.943H7.79704ZM8.05233 33.3978L8.34911 32.2104H7.79704H7.53428L7.25177 33.3978H7.79704H8.05233Z" fill="#1D1D1B"/>
<path fill-rule="evenodd" clip-rule="evenodd" d="M14.9407 31.5479H13.8225H13.4981C13.4981 31.5479 13.4981 31.5547 13.4913 31.5686H12.5665L11.6002 35.9028H12.7249L13.0356 34.5228C13.2358 34.5228 13.2841 34.6815 13.2841 34.6815L13.6012 35.8754H13.8225H14.7199L14.2916 34.4398C14.9065 34.4398 14.9958 34.0188 14.9958 34.0188C14.9958 34.0188 15.3686 32.6385 15.4447 32.0519C15.4447 32.0447 15.4515 32.0447 15.4515 32.0381V31.8726C15.396 31.4858 14.9407 31.5479 14.9407 31.5479ZM14.395 32.1621H13.8225H13.5738L13.243 33.8603H13.8225H14.078L14.395 32.1621Z" fill="#1D1D1B"/>
<path fill-rule="evenodd" clip-rule="evenodd" d="M32.6241 33.8464H32.7484L32.6241 34.3436L32.2446 35.8824H32.6241H33.4389L34.4257 31.4993C34.4257 31.4993 33.4111 31.4925 32.6241 31.4925C32.4031 31.4857 32.1958 31.4857 32.0303 31.4857C31.3195 31.4857 31.1332 32.3139 31.1332 32.3139L30.3188 35.8824H31.4163L31.9616 33.8464H32.6241ZM33.1692 32.1276H32.6241H32.3824L32.0859 33.3147H32.6241H32.8864L33.1692 32.1276Z" fill="#1D1D1B"/>
</svg>
