<svg width="40" height="40" viewBox="0 0 40 40" fill="none" xmlns="http://www.w3.org/2000/svg">
<path d="M36 4H4V36H36V4Z" fill="#D71A21"/>
<path fill-rule="evenodd" clip-rule="evenodd" d="M20.3436 11.7657C20.4854 11.8996 20.7839 12.2521 20.6048 12.4284C20.4481 12.5765 20.2019 12.8162 20.2019 12.8162C20.1869 12.7316 19.9556 12.5201 19.9556 12.5201V13.2321C19.9481 13.5212 19.8362 13.5988 19.8362 13.5988C19.8362 13.5988 20.3959 14.1205 20.3959 14.7973V15.4882C20.4033 15.6151 20.3511 15.7491 20.2541 15.8407C20.2019 15.8971 19.687 16.3907 19.6049 16.4541C19.4855 16.5528 19.3362 16.6092 19.1795 16.6022H17.2468C16.9409 16.6022 16.6274 16.3766 16.6274 16.151C16.6274 16.0946 16.6349 15.4741 16.6349 15.4741L16.6481 15.4886C16.7416 15.5911 16.8472 15.7068 17.0752 15.7068C17.2692 15.7068 17.4632 15.5658 17.5155 15.5094C17.5677 15.453 18.9781 14.0711 18.9781 14.0711C18.9781 14.0711 18.3214 13.493 17.8886 13.218C17.6796 13.0841 17.3961 13.2533 17.3513 13.4295C17.217 13.9795 17.3513 14.8114 17.3513 14.8114L16.8215 14.3108C16.6051 14.1064 16.6125 13.6481 16.8737 13.4084C16.911 13.3661 17.3065 12.9572 17.799 12.9572H18.5676C19.0825 12.9572 19.6497 13.4436 19.6497 13.4436C19.6944 13.3943 19.7243 13.3379 19.7317 13.2744C19.7317 13.0206 19.7243 12.3509 19.7243 12.3509C19.3362 11.9842 19.284 11.6035 19.4706 11.4273C19.8213 11.0959 19.9481 10.9831 19.9481 10.9831C19.9481 10.9831 19.9332 11.385 20.3436 11.7657ZM17.9184 15.4318C17.8894 15.4603 17.864 15.4855 17.8413 15.508C17.7121 15.6363 17.6677 15.6803 17.5155 15.7702H19.6944C20.2839 15.7702 20.1646 15.4248 20.0601 15.2485C19.8437 14.889 19.1571 14.2262 19.1571 14.2262C19.1571 14.2262 17.9557 15.3966 17.9184 15.4318ZM21.0973 12.795C21.0973 12.4848 21.2093 12.1816 21.4107 11.9349C21.4451 11.9024 21.6033 11.7653 21.7884 11.605L21.7885 11.605L21.7885 11.6049C22.0862 11.3471 22.4531 11.0292 22.4853 10.9901L22.7465 10.9972C22.7189 11.0265 22.6338 11.0981 22.54 11.177C22.431 11.2687 22.3101 11.3704 22.254 11.4272C22.06 11.6176 21.9555 11.8784 21.963 12.1393V14.7338C21.963 15.0793 21.8212 15.4106 21.5749 15.6645C21.5067 15.7465 20.9079 16.252 20.6602 16.461L20.6601 16.4611L20.66 16.4611L20.6596 16.4615L20.6589 16.4621L20.6586 16.4624C20.609 16.5042 20.5738 16.534 20.56 16.5457L20.3138 16.5387C20.3349 16.5148 20.4851 16.3847 20.625 16.2635L20.6252 16.2634C20.7324 16.1705 20.8336 16.0828 20.866 16.0522C21.0003 15.8901 21.0824 15.6997 21.0973 15.4953V12.795ZM20.3511 22.609L19.3138 21.7559L21.0451 21.7418C21.7167 21.7418 22.2017 21.3047 22.3734 21.1496C23.3509 20.2542 23.3509 19.6902 23.045 19.38C22.9853 19.3165 22.6495 18.9922 22.6495 18.9922V17.9135C22.6495 17.9135 22.9554 18.1885 23.0002 18.2308C23.2539 18.4423 23.3957 18.7454 23.4032 19.0627V20.4657C23.4032 20.9733 23.2465 21.5162 22.8211 21.9181C22.351 22.3622 21.7092 22.609 21.0451 22.609H20.3511ZM22.2018 15.9958C22.0898 16.1086 21.9779 16.3907 21.9779 16.6445V17.1732H22.545C22.7689 17.1732 23.0599 16.9829 23.1196 16.8842V16.3554C23.2017 16.4682 23.3062 16.574 23.4256 16.6586C23.4853 16.5881 24.0076 15.9958 24.4404 15.9888C25.1643 15.9817 25.0001 16.8489 24.7091 17.1239C24.6492 17.1805 24.4641 17.3419 24.2996 17.4853C24.1978 17.5742 24.1038 17.6562 24.0524 17.702C23.7091 18.0122 23.1196 17.8642 23.1196 17.0675C23.1196 17.0675 22.4928 17.6315 22.3958 17.7091C22.2988 17.7866 21.9779 18.1109 21.9779 18.1109V19.5139C21.9779 20.1665 21.7583 20.3975 21.5675 20.598L21.5525 20.6138C21.4779 20.6913 20.6795 21.3823 20.5675 21.4598L20.3063 21.4669C20.3063 21.4669 20.7765 21.065 20.866 20.9733C20.9705 20.8676 21.0973 20.6561 21.0973 20.3036C21.0973 20.2119 21.0824 18.1039 21.0824 18.1039H17.4408C16.1722 18.1039 15.9036 16.7784 15.8961 16.4189V15.0863C15.8961 14.8678 15.7469 14.5012 15.5156 14.3884H15.8738C15.9185 14.4025 16.1424 14.4871 16.1424 15.3049C16.1424 15.3049 16.1275 16.2496 16.1275 16.306C16.1275 16.722 16.4782 17.1944 16.9782 17.1944L21.0973 17.1873C21.0973 17.0816 21.2093 16.6868 21.4108 16.4753C21.5227 16.3554 22.4107 15.594 22.5077 15.5164H22.7689C22.7584 15.5263 22.7165 15.562 22.6598 15.6103L22.6592 15.6108L22.6591 15.6108L22.6591 15.6108L22.659 15.6109L22.659 15.6109L22.659 15.6109C22.5142 15.7342 22.2734 15.9392 22.2092 16.0099L22.2018 15.9958ZM23.5524 16.7925C23.6569 16.9265 23.7763 17.0604 23.9032 17.1803C24.3509 17.5187 24.5598 17.1521 24.2614 16.7714C24.142 16.6163 23.6868 16.6586 23.5524 16.7925ZM18.4631 20.0215C18.5004 19.9933 19.1347 19.4928 19.1347 19.3024C19.1347 19.0902 19.0176 18.9841 18.7352 18.7283C18.6611 18.6613 18.5757 18.5839 18.478 18.4916L17.7841 19.1473C18.2542 19.5985 18.4183 19.8171 18.4631 20.0215ZM15.0753 17.3072H15.4335C15.4335 17.3072 15.7021 17.3072 15.6947 18.2096V19.098C15.6947 20.1837 16.7319 20.8253 17.4931 20.8112H19.5751C20.0377 20.8112 20.4258 20.1767 19.9333 19.81C19.8288 19.7325 19.59 19.4928 19.59 19.4928V18.3929C19.59 18.3929 19.8288 18.6115 19.9183 18.6961C19.9349 18.7117 19.9533 18.7281 19.973 18.7456C20.1223 18.8781 20.3437 19.0746 20.3437 19.4857V20.0216C20.3437 20.5178 20.1675 20.704 19.9905 20.891C19.9714 20.9113 19.9522 20.9315 19.9333 20.9522L19.9235 20.9625C19.8572 21.0331 19.703 21.1972 19.5825 21.2977C19.2393 21.5867 19.0378 21.7136 18.4707 21.7136H17.5229C16.3887 21.7136 15.4559 20.7266 15.4559 19.662V18.0193C15.4559 17.5046 15.0753 17.3072 15.0753 17.3072ZM17.7169 19.3095C17.7169 19.4999 17.0827 20.0004 17.0453 20.0286C17.0006 19.8242 16.8364 19.6056 16.3663 19.1544L17.0603 18.4987C17.1603 18.5932 17.2477 18.6719 17.3234 18.7399L17.3234 18.74C17.5977 18.9867 17.7169 19.094 17.7169 19.3095ZM9.32188 26.6065H10.4412C11.1427 26.6065 11.3143 26.2752 11.3143 26.2752L11.3068 26.536C11.3068 26.7334 11.1203 27.093 10.583 27.093H8.21746C8.21746 27.093 7.92643 27.0718 7.92643 26.3809L7.91151 23.6313C7.92643 22.9474 7.50854 22.609 7.50854 22.609H9.9114C11.1427 22.609 11.2397 23.4057 11.2397 23.4057C10.7358 23.0952 10.2533 23.0953 9.63847 23.0955L9.59798 23.0955H8.85922C8.97115 23.2153 8.97115 23.6384 8.97115 23.6384V24.1248H9.48605C9.94125 24.1107 10.3591 24.3504 10.5532 24.7382C10.2343 24.5695 9.90448 24.5759 9.62435 24.5813H9.62433H9.62431H9.62429H9.62428H9.62426H9.62424H9.62422H9.6242C9.57662 24.5822 9.53047 24.5831 9.48605 24.5831C9.20994 24.5831 8.96369 24.5901 8.96369 24.5901V26.0989C8.96924 26.1335 8.9733 26.1691 8.97735 26.2045C9.00054 26.4073 9.02332 26.6065 9.32188 26.6065ZM16.7393 26.3739V24.4491C16.7393 23.7018 16.0976 23.5044 15.6125 23.5044C15.0105 23.5044 14.8051 23.9554 14.7156 24.152L14.7021 24.1812C14.5604 23.7159 14.0604 23.5044 13.6574 23.5044C12.8888 23.5044 12.6948 24.1953 12.6948 24.1953C12.6948 24.1953 12.6799 23.5255 12.0605 23.5255H11.4561C11.4561 23.5255 11.8068 23.6595 11.8068 24.2376V26.3739C11.8068 27.0789 12.1053 27.093 12.1053 27.093H13.1052C12.8664 26.9238 12.7246 26.6559 12.7246 26.3668V24.4703C12.7396 24.3857 12.8888 24.1037 13.3142 24.1037C13.5604 24.1037 13.8291 24.3434 13.8216 24.6113V26.3739C13.8216 27.086 14.1201 27.093 14.1201 27.093H15.12C14.8812 26.9167 14.7395 26.6559 14.7395 26.3668V24.4703C14.8365 24.1953 15.1499 24.0402 15.4484 24.1319C15.6722 24.2024 15.8289 24.3927 15.8364 24.6183V26.3739C15.8439 27.093 16.1349 27.086 16.1349 27.086H17.1348C16.8886 26.9167 16.7468 26.6559 16.7393 26.3739ZM18.8661 27.093C18.6273 26.9238 18.4856 26.6559 18.4856 26.3739L18.4781 26.3598V24.3152C18.4781 23.5185 18.0378 23.5185 17.8214 23.5185H17.217C17.217 23.5185 17.5602 23.6666 17.5602 24.2306V26.3809C17.5602 27.1 17.8662 27.093 17.8662 27.093H18.8661ZM21.56 23.7935C21.56 23.7935 21.463 23.5397 21.0526 23.5397C20.4257 23.5397 20.2765 24.2447 20.2765 24.2447C20.2243 23.6877 20.0675 23.5256 19.6273 23.5256H19.0228C19.0228 23.5256 19.3736 23.6595 19.3736 24.2377V26.3739C19.3736 27.0789 19.672 27.093 19.672 27.093H20.672C20.4332 26.9238 20.2914 26.6559 20.2914 26.3739V24.6184C20.3138 24.4703 20.4033 24.3364 20.5377 24.2588C20.8735 24.0473 21.3137 24.1107 21.5749 24.3998L21.56 23.7935ZM26.7985 24.0614C26.6194 23.9697 26.4179 23.9204 26.209 23.9204H25.9553V26.395C25.9627 26.67 26.1045 26.9308 26.3433 27.093H25.3508C25.3508 27.093 25.0449 27.093 25.0449 26.4021V23.9204L24.4106 23.9133C24.4106 23.9133 25.0076 23.6383 25.2911 23.4198C25.5523 23.2153 25.7836 22.9756 25.9627 22.7077V23.5255H26.7985V24.0614ZM29.2387 24.999C28.9465 25.2861 28.6869 25.4003 28.4555 25.502C28.2437 25.5951 28.0556 25.6778 27.888 25.8733C27.888 25.8733 27.9477 26.4232 28.388 26.6136C28.5372 26.677 29.1566 26.8885 29.5521 26.2399V26.818C29.5521 26.818 29.2984 27.1 28.485 27.1C27.5074 27.1 26.8358 26.3738 26.8358 25.3868C26.8358 24.4139 27.3806 23.5185 28.4178 23.5114C29.4252 23.4973 29.9774 24.2729 29.2387 24.999ZM28.6268 24.7734C28.7909 24.4844 28.9252 23.7511 28.3581 23.7934C27.7014 23.8428 27.8283 25.4855 27.8283 25.4855C27.9066 25.4038 27.9997 25.3452 28.0985 25.283C28.2727 25.1733 28.4649 25.0523 28.6268 24.7734ZM18.4706 22.7994C18.4706 23.032 18.2766 23.2294 18.0229 23.2365C17.7692 23.2365 17.5602 23.0461 17.5602 22.8064C17.5602 22.5738 17.7617 22.3834 18.008 22.3763C18.2542 22.3763 18.4632 22.5597 18.4706 22.7994ZM22.5973 26.6841C22.3734 26.6841 22.2093 26.4585 22.2093 26.2329C22.2093 25.5775 22.6276 25.3366 22.9309 25.1619C23.0387 25.0997 23.132 25.046 23.1868 24.985V26.4867C23.1732 26.4966 23.1598 26.5076 23.1456 26.5192C23.0585 26.5903 22.9437 26.6841 22.5973 26.6841ZM23.1868 24.6395C23.1152 24.7574 22.8925 24.8469 22.6274 24.9535C22.0366 25.191 21.2351 25.5131 21.4257 26.4232C21.5377 26.945 21.9033 27.1001 22.366 27.1001C22.8137 27.1001 23.0898 26.8815 23.2017 26.67C23.2689 27.0648 23.4853 27.093 23.4853 27.093H24.4853C24.2465 26.9238 24.0972 26.6629 24.0972 26.3809V24.3716C24.0972 23.8922 23.5375 23.5185 22.9406 23.5185C22.6048 23.5115 22.2839 23.6031 22.0078 23.7794V24.3998C22.0078 24.3998 22.2167 23.9063 22.7316 23.9063C23.2391 23.9063 23.2764 24.146 23.2764 24.2658C23.2838 24.3927 23.2614 24.5267 23.1868 24.6395ZM30.7088 26.7052C31.2162 26.7052 31.455 26.3739 31.4475 26.1201C31.4401 25.9438 31.3356 25.7605 31.052 25.6124C30.8729 25.5208 30.7013 25.4221 30.5371 25.3093C30.1715 25.0484 29.9849 24.7805 29.9775 24.3575C29.9625 23.8781 30.5073 23.5044 31.1043 23.5044C31.4475 23.5044 31.7833 23.6031 32.0595 23.7864V24.3857C32.0595 24.3857 31.843 23.8922 31.3505 23.8922C30.8506 23.8922 30.7834 24.1319 30.7909 24.2517C30.7909 24.3152 30.8879 24.5126 31.0744 24.6183C31.1271 24.6489 31.1822 24.6798 31.2383 24.7114C31.5321 24.8765 31.8578 25.0596 32.052 25.3022C32.1938 25.4785 32.2759 25.697 32.2833 25.9226C32.2982 26.6065 31.6043 27.093 30.9252 27.093C30.5894 27.093 30.261 27.0084 29.9775 26.8392V26.2047C29.9775 26.2047 30.1864 26.7052 30.7088 26.7052Z" fill="white"/>
</svg>
