<svg width="40" height="40" viewBox="0 0 40 40" fill="none" xmlns="http://www.w3.org/2000/svg">
<path fill-rule="evenodd" clip-rule="evenodd" d="M4 34V29H8.69615V30.3034H5.71301V30.7995H8.70571V32.0581H5.71638V32.6928H8.69531V34H4ZM11.0409 34L9.3582 29H11.1516L12.0488 32.017L12.9938 29H14.7987L13.0478 34H11.0409ZM16.5404 32.1758H17.5686L17.0625 30.541L16.5404 32.1758ZM14.1401 34L16.0057 29H18.1413L19.9501 34H18.1222L17.9022 33.292H16.1925L15.9658 34H14.1401ZM23.6937 32.1758H24.7216L24.2155 30.541L23.6937 32.1758ZM21.2936 34L23.1589 29H25.2946L27.1034 34H25.2754L25.0554 33.292H23.3458L23.119 34H21.2936ZM28.2423 34V29H29.9879V34H28.2423ZM32.6142 31.1059H33.6845C33.8337 31.1046 33.9695 31.0498 34.0698 30.9502C34.1707 30.8498 34.2184 30.7221 34.2063 30.5869C34.1954 30.4657 34.1372 30.3582 34.0383 30.276C33.9326 30.1916 33.8084 30.1482 33.682 30.1518H32.6139V31.1059H32.6142ZM32.6032 34H30.8975V29H34.2142C34.5936 28.9986 34.9398 29.0863 35.2635 29.266C35.6257 29.4612 35.8617 29.783 35.9194 30.162C35.9952 30.6006 35.8469 31.0306 35.5094 31.3518C35.3534 31.5017 35.1674 31.6 34.9474 31.6486C35.3321 31.7321 35.628 32.0036 35.7156 32.3535C35.7451 32.4792 35.7645 32.5949 35.7755 32.7226C35.805 33.0718 35.8353 33.3885 35.8727 33.7364C35.8831 33.8367 35.9255 33.9257 36 34H34.2892C34.2176 33.9039 34.1709 33.784 34.1552 33.6556C34.1161 33.3466 34.0839 33.0364 34.0585 32.7254C34.0476 32.5963 33.9872 32.4812 33.8835 32.3922C33.7792 32.3032 33.6497 32.2553 33.5069 32.2532L32.6029 32.2519V34H32.6032Z" fill="#409E54"/>
<g clip-path="url(#clip0_742_300)">
<path fill-rule="evenodd" clip-rule="evenodd" d="M34.5115 6.04083H36L28.1609 25.9999H26.547C28.9467 19.2691 31.603 12.6122 34.5115 6.04083Z" fill="#D06537"/>
<path fill-rule="evenodd" clip-rule="evenodd" d="M19.9587 11.3345L20.5959 13.7934L21.9783 13.0452L22.0759 13.1086L21.5329 14.4271L23.8062 14.8429L23.7948 15.1024L21.5448 15.5389L22.3154 17.0434L22.0935 17.1742L20.575 16.4943L19.9587 19.3013H19.8247L19.1897 16.4943L17.7409 17.2043L17.5679 17.0434L18.3283 15.5489L15.8569 15.1024L15.816 14.853L18.3107 14.4482L17.729 13.1599L17.8255 13.0824L19.2607 13.7934L19.8247 11.3345H19.9587Z" fill="#409E54"/>
<path fill-rule="evenodd" clip-rule="evenodd" d="M12.0848 17.9315L21.1775 7.78632L22.6115 8.36109C23.116 8.50591 23.5603 8.67739 24.0245 8.90568C25.2908 9.54487 26.3412 10.4725 27.0668 11.5925C27.2484 11.864 27.3936 12.121 27.5287 12.4121C27.6774 12.732 27.7937 13.0297 27.8976 13.3625C28.8793 16.5552 27.2705 19.9847 24.024 21.619C23.5717 21.8408 23.1427 22.0148 22.6575 22.1712C20.8189 22.7731 18.9133 22.7731 17.0747 22.1712C16.6033 22.0204 16.1467 21.8357 15.7093 21.619C14.416 20.9573 13.4173 20.0762 12.6659 18.9327C12.4501 18.6095 12.256 18.2752 12.0848 17.9315ZM14.2129 18.1986L13.0223 18.1976C13.1063 18.3529 13.1908 18.4912 13.2907 18.6396C13.6274 19.1611 14.0441 19.6387 14.529 20.0586L14.693 20.1959L14.7752 20.2628H16.3602C15.8274 19.6379 15.4126 18.9404 15.1322 18.1976L14.2129 18.1986ZM13.8077 17.9522L15.0471 17.9627C14.7722 17.1776 14.6182 16.3631 14.5891 15.5414L12.7357 17.6132C12.7913 17.7339 12.843 17.844 12.902 17.9637L13.8077 17.9522ZM16.0719 15.3453L14.7253 15.37C14.7531 16.2661 14.9018 17.0782 15.194 17.9366L17.515 17.92C17.3704 17.0672 17.2959 16.2062 17.292 15.3438L16.0719 15.3453ZM15.8137 20.4695H15.0647C15.4063 20.7229 15.7405 20.9271 16.1287 21.1207C16.6652 21.4251 17.2493 21.6581 17.8623 21.8121C18.2766 21.9278 18.6568 22.0223 19.0784 22.1128L17.7216 21.4717C17.5666 21.4064 17.42 21.3266 17.2841 21.2338C17.1308 21.1297 17.0003 21.0236 16.8698 20.8979C16.7292 20.7639 16.6002 20.6207 16.4839 20.4695H15.8137ZM17.1025 20.21L18.1619 20.2191C18.0247 19.8977 17.9089 19.5694 17.8152 19.236C17.7128 18.8792 17.6271 18.5188 17.5581 18.1558L15.2616 18.1815C15.4781 18.7011 15.7498 19.2014 16.0731 19.6755C16.2019 19.8756 16.3313 20.0516 16.4868 20.2362L17.1025 20.21ZM19.7923 20.4564H18.3901C18.4996 20.7159 18.6182 20.9457 18.7691 21.1891C18.9297 21.4199 19.1062 21.6135 19.3253 21.8031C19.424 21.8865 19.5193 21.9554 19.6311 22.0238C19.6822 22.0545 19.7321 22.0786 19.7895 22.0983L19.7923 20.4564ZM19.3627 21.9348C19.2149 21.8123 19.0795 21.6785 18.9581 21.535C18.8223 21.3778 18.6995 21.2121 18.5904 21.0392C18.4699 20.8503 18.3623 20.6552 18.2681 20.4549L16.6298 20.4775C16.8182 20.6817 17.0066 20.8547 17.2318 21.0267C17.4356 21.183 17.6376 21.3078 17.8737 21.4214L19.2725 22.0912C19.3945 22.1274 19.5154 22.1355 19.6402 22.1128C19.5392 22.0647 19.4459 22.0049 19.3627 21.9348ZM19.9421 10.0587H21.3443C21.2393 9.80646 21.113 9.56154 20.9664 9.32608C20.8907 9.19963 20.8039 9.07858 20.7071 8.96402C20.669 8.91713 20.6244 8.87471 20.5743 8.8378L19.9404 9.55488L19.9421 10.0587ZM19.9546 22.0822C20.0846 22.0203 20.1952 21.9524 20.307 21.8679C20.4313 21.7744 20.5351 21.6814 20.6395 21.5702C20.9373 21.247 21.1719 20.8819 21.3336 20.4901H19.9427L19.9546 22.0822ZM20.1107 22.0998C20.227 22.1224 20.3388 22.1194 20.454 22.0907C20.5136 22.0771 20.5669 22.0585 20.6225 22.0319L21.8959 21.4123C22.2036 21.2705 22.4857 21.0888 22.733 20.8733C22.8715 20.755 23.0019 20.6294 23.1234 20.4971L21.4544 20.4911C21.3426 20.732 21.224 20.9447 21.0754 21.17C20.9479 21.3672 20.8007 21.5538 20.6356 21.7276C20.536 21.8339 20.4207 21.9278 20.2928 22.0067C20.2327 22.0429 20.1759 22.0721 20.1107 22.0998ZM20.7735 8.91876C21.0538 9.28987 21.2711 9.64892 21.4675 10.0598L23.1058 10.0376C22.9244 9.83873 22.7228 9.65493 22.5037 9.4885C22.3072 9.33612 22.0919 9.20387 21.8619 9.09426L20.7967 8.58385L20.6271 8.76991C20.6849 8.81517 20.7315 8.86244 20.7735 8.91876ZM21.2575 21.966C22.093 21.81 22.8929 21.5307 23.6239 21.1398C24.0278 20.9378 24.4096 20.7029 24.7645 20.4383L23.2704 20.4886C23.0427 20.7705 22.7719 21.0231 22.4657 21.2389C22.3294 21.3339 22.184 21.418 22.031 21.4903L20.833 22.05C20.9817 22.0329 21.1145 22.0062 21.2575 21.966ZM22.632 10.3051L21.5725 10.2956C21.7132 10.6275 21.8227 10.9352 21.9203 11.2792C22.0247 11.6473 22.1042 11.9852 22.1763 12.3598L24.4728 12.3342C24.2562 11.8147 23.9845 11.3147 23.6613 10.8407C23.5368 10.6461 23.3987 10.4587 23.2477 10.2795L22.632 10.3051ZM23.4134 18.1759L22.1643 18.1905C22.0498 18.8965 21.8476 19.5891 21.5617 20.2558H22.3386L23.2539 20.2261C23.7927 19.6115 24.2044 18.9172 24.47 18.1754H23.4134V18.1759ZM23.2828 17.9562L24.5597 17.9325C24.8457 17.0782 24.9853 16.2686 25.0017 15.378L22.4305 15.38C22.4272 16.2424 22.3527 17.1034 22.2075 17.9562H23.2828ZM23.9212 10.0457H24.6703C24.3398 9.7992 23.9835 9.58114 23.6063 9.39447C23.0698 9.08987 22.4856 8.85674 21.8727 8.70253C21.5496 8.61161 21.2231 8.53061 20.8938 8.45965L20.8586 8.50289L22.0134 9.04397C22.1729 9.11136 22.3102 9.18628 22.4509 9.28182C22.6041 9.38592 22.7347 9.49152 22.8652 9.61723C23.0105 9.75602 23.1313 9.88979 23.2522 10.0457H23.9212ZM24.0807 20.2472H24.983L25.1481 20.1125L25.2293 20.0426C25.7108 19.62 26.1272 19.1428 26.4675 18.6235C26.5674 18.4751 26.6514 18.3379 26.7371 18.1815H24.6278C24.3558 18.9274 23.9403 19.6261 23.3997 20.2467H24.0807V20.2472ZM25.9273 12.5625L24.6879 12.5514C24.9847 13.4123 25.1311 14.229 25.1487 15.1291L27.4839 15.1286C27.4638 14.2395 27.2423 13.3631 26.8324 12.5514L25.9273 12.5625ZM25.5215 12.3161L26.7121 12.3171C26.6306 12.1662 26.541 12.0189 26.4437 11.8756C26.1072 11.354 25.6905 10.8764 25.2054 10.4565L25.0414 10.3187L24.9592 10.2523H23.3753C23.9073 10.8775 24.3216 11.5747 24.6022 12.3171L25.5215 12.3161ZM25.6469 17.9481H26.8562C27.0157 17.6213 27.1377 17.3145 27.2455 16.9721C27.4084 16.434 27.4918 15.9281 27.5083 15.371H25.1731C25.1633 16.2456 25.008 17.1142 24.7123 17.9486H25.6469V17.9481ZM22.4248 14.5387L22.2132 14.5C22.182 13.8633 22.1098 13.2286 21.9969 12.5992L20.2724 12.5987L20.2094 12.3493L21.9839 12.3583L21.8908 11.8595C21.7929 11.3742 21.6585 10.8952 21.4885 10.4258L21.4476 10.3157L21.4397 10.2941H19.9421L19.941 11.3219L19.9296 11.2782H19.7968L19.7923 11.3003V10.2579L19.2924 10.2614L17.8447 11.8736C17.8135 12.028 17.788 12.1683 17.7624 12.3231L19.5557 12.3246L19.4949 12.5821L17.7159 12.5831C17.6158 13.2227 17.5544 13.8666 17.532 14.5121L17.3181 14.5463C17.347 13.8594 17.4123 13.2368 17.5264 12.557L17.2914 12.5575L14.9773 15.1422L16.3205 15.1341L17.5031 15.3494C17.5054 15.8627 17.5342 16.3756 17.5894 16.8866L17.5383 16.9867L17.6092 17.0525C17.6444 17.3492 17.6847 17.6193 17.7369 17.9139L19.4949 17.9149L19.5506 18.1644L17.7505 18.1543L17.8447 18.6531C17.9457 19.153 18.0717 19.6031 18.2459 20.0873L18.2868 20.1974L18.2947 20.2191L19.7923 20.2181L19.7934 19.2289L19.7968 19.2445H19.9296L19.9415 19.1922V20.2538H21.4278C21.6826 19.5593 21.8534 18.9101 21.9708 18.1885L20.1617 18.1865L20.2196 17.929L22.0174 17.928C22.0628 17.6374 22.0974 17.3724 22.128 17.0792L22.2852 16.9857L22.1575 16.7332C22.1939 16.2726 22.2109 15.8527 22.2086 15.3911L21.9657 15.3931L23.1296 15.1678L23.6625 15.1673L25.008 15.1432C24.9847 14.2727 24.8269 13.4091 24.5392 12.5766L22.2183 12.5932C22.3318 13.2595 22.3959 13.8679 22.4248 14.5387Z" fill="#D06537"/>
<path fill-rule="evenodd" clip-rule="evenodd" d="M23.3583 6.00013L33.5961 6.00365L25.921 25.6414C25.8791 25.7478 25.8002 25.8398 25.6958 25.9042C25.5913 25.9686 25.4666 26.0021 25.3394 25.9999H5L22.3857 6.4175C22.4997 6.28545 22.6471 6.17891 22.816 6.10643C22.9849 6.03395 23.1707 5.99754 23.3583 6.00013ZM12.2568 18.0995L21.3495 7.95425L22.6637 8.34698C23.1682 8.49231 23.6125 8.66328 24.0756 8.89158C25.3689 9.55384 26.3676 10.4349 27.119 11.5784C27.3005 11.8499 27.4447 12.1069 27.5809 12.398C27.7296 12.7178 27.8447 13.0155 27.9497 13.3489C28.9309 16.5421 27.3227 19.9706 24.075 21.6059C23.6373 21.822 23.1807 22.0066 22.7097 22.158C20.8711 22.759 18.9655 22.759 17.1269 22.158C16.6554 22.0069 16.1984 21.8222 15.7604 21.6059C14.4683 20.9441 13.4695 20.0621 12.7171 18.9186C12.5415 18.6558 12.3877 18.382 12.2568 18.0995Z" fill="#409E54"/>
</g>
<defs>
<clipPath id="clip0_742_300">
<rect width="31" height="20" fill="white" transform="translate(5 6)"/>
</clipPath>
</defs>
</svg>
